G04 #@! TF.GenerationSoftware,KiCad,Pcbnew,9.0.2*
G04 #@! TF.CreationDate,2025-11-16T13:06:36+01:00*
G04 #@! TF.ProjectId,Flying_FOCer,466c7969-6e67-45f4-964f-4365722e6b69,rev?*
G04 #@! TF.SameCoordinates,Original*
G04 #@! TF.FileFunction,Paste,Top*
G04 #@! TF.FilePolarity,Positive*
%FSLAX46Y46*%
G04 Gerber Fmt 4.6, Leading zero omitted, Abs format (unit mm)*
G04 Created by KiCad (PCBNEW 9.0.2) date 2025-11-16 13:06:36*
%MOMM*%
%LPD*%
G01*
G04 APERTURE LIST*
G04 Aperture macros list*
%AMRoundRect*
0 Rectangle with rounded corners*
0 $1 Rounding radius*
0 $2 $3 $4 $5 $6 $7 $8 $9 X,Y pos of 4 corners*
0 Add a 4 corners polygon primitive as box body*
4,1,4,$2,$3,$4,$5,$6,$7,$8,$9,$2,$3,0*
0 Add four circle primitives for the rounded corners*
1,1,$1+$1,$2,$3*
1,1,$1+$1,$4,$5*
1,1,$1+$1,$6,$7*
1,1,$1+$1,$8,$9*
0 Add four rect primitives between the rounded corners*
20,1,$1+$1,$2,$3,$4,$5,0*
20,1,$1+$1,$4,$5,$6,$7,0*
20,1,$1+$1,$6,$7,$8,$9,0*
20,1,$1+$1,$8,$9,$2,$3,0*%
%AMFreePoly0*
4,1,13,0.175001,0.525000,0.175001,-0.125001,0.125001,-0.175001,-0.475000,-0.174998,-0.525000,-0.125001,-0.525000,0.024999,-0.475000,0.075001,-0.124998,0.075001,-0.075001,0.125001,-0.075001,0.525000,-0.025001,0.575000,0.124999,0.575000,0.175001,0.525000,0.175001,0.525000,$1*%
%AMFreePoly1*
4,1,65,0.218747,2.418748,0.218750,-1.481252,0.168748,-1.531249,-0.106251,-1.531252,-0.156251,-1.481252,-0.156251,-1.193249,-0.206250,-1.143249,-0.431251,-1.143249,-0.481251,-1.093249,-0.481251,-0.943250,-0.431251,-0.893250,-0.206250,-0.893250,-0.156251,-0.843250,-0.156251,-0.693250,-0.206250,-0.643250,-0.431251,-0.643250,-0.481251,-0.593250,-0.481251,-0.443251,-0.431251,-0.393251,-0.206250,-0.393248,
-0.156251,-0.343251,-0.156251,-0.193251,-0.206250,-0.143251,-0.431251,-0.143251,-0.481251,-0.093251,-0.481251,0.056748,-0.431251,0.106748,-0.206250,0.106748,-0.156251,0.156748,-0.156251,0.306748,-0.206250,0.356748,-0.431251,0.356748,-0.481251,0.406750,-0.481251,0.556750,-0.431251,0.606747,-0.206250,0.606750,-0.156251,0.656750,-0.156251,0.806750,-0.206250,0.856749,-0.431251,0.856749,
-0.481251,0.906749,-0.481251,1.056749,-0.431251,1.106749,-0.206250,1.106749,-0.156251,1.156751,-0.156251,1.306751,-0.206250,1.356751,-0.431251,1.356751,-0.481251,1.406751,-0.481251,1.556751,-0.431251,1.606748,-0.206250,1.606748,-0.156251,1.656750,-0.156251,1.806753,-0.206250,1.856747,-0.431251,1.856747,-0.481251,1.906750,-0.481251,2.056747,-0.431251,2.106749,-0.206250,2.106747,
-0.156251,2.156749,-0.156251,2.418748,-0.106251,2.468748,0.168750,2.468750,0.218747,2.418748,0.218747,2.418748,$1*%
%AMFreePoly2*
4,1,65,0.106251,2.468743,0.156251,2.418743,0.156251,2.156744,0.206250,2.106742,0.431251,2.106744,0.481251,2.056739,0.481251,1.906745,0.431251,1.856740,0.206250,1.856745,0.156251,1.806748,0.156251,1.656745,0.206250,1.606748,0.431251,1.606745,0.481251,1.556748,0.481251,1.406746,0.431251,1.356746,0.206250,1.356746,0.156251,1.306746,0.156251,1.156744,0.206250,1.106744,
0.431251,1.106744,0.481251,1.056744,0.481251,0.906744,0.431251,0.856744,0.206250,0.856744,0.156251,0.806745,0.156251,0.656745,0.206250,0.606745,0.431251,0.606745,0.481251,0.556745,0.481251,0.406745,0.431251,0.356743,0.206250,0.356743,0.156251,0.306746,0.156251,0.156743,0.206250,0.106743,0.431251,0.106743,0.481251,0.056743,0.481251,-0.093256,0.431251,-0.143256,
0.206250,-0.143256,0.156251,-0.193254,0.156251,-0.343256,0.206250,-0.393256,0.431251,-0.393256,0.481251,-0.443256,0.481251,-0.593255,0.431251,-0.643255,0.206250,-0.643255,0.156251,-0.693255,0.156251,-0.843255,0.206250,-0.893255,0.431251,-0.893255,0.481251,-0.943255,0.481251,-1.093254,0.431251,-1.143254,0.206250,-1.143254,0.156251,-1.193254,0.156251,-1.481254,0.106251,-1.531257,
-0.168750,-1.531257,-0.218750,-1.481257,-0.218747,2.418743,-0.168750,2.468745,0.106251,2.468743,0.106251,2.468743,$1*%
%AMFreePoly3*
4,1,13,0.075001,0.525000,0.074999,0.125001,0.124998,0.075001,0.475000,0.075001,0.525000,0.025001,0.525000,-0.125001,0.475000,-0.174998,-0.125001,-0.175001,-0.175001,-0.125001,-0.175001,0.525000,-0.124999,0.575000,0.025001,0.575000,0.075001,0.525000,0.075001,0.525000,$1*%
G04 Aperture macros list end*
%ADD10C,0.000000*%
%ADD11RoundRect,0.135000X-0.185000X0.135000X-0.185000X-0.135000X0.185000X-0.135000X0.185000X0.135000X0*%
%ADD12RoundRect,0.250000X0.650000X-0.325000X0.650000X0.325000X-0.650000X0.325000X-0.650000X-0.325000X0*%
%ADD13RoundRect,0.140000X-0.140000X-0.170000X0.140000X-0.170000X0.140000X0.170000X-0.140000X0.170000X0*%
%ADD14RoundRect,0.140000X-0.170000X0.140000X-0.170000X-0.140000X0.170000X-0.140000X0.170000X0.140000X0*%
%ADD15RoundRect,0.140000X0.170000X-0.140000X0.170000X0.140000X-0.170000X0.140000X-0.170000X-0.140000X0*%
%ADD16RoundRect,0.250000X0.362500X1.425000X-0.362500X1.425000X-0.362500X-1.425000X0.362500X-1.425000X0*%
%ADD17RoundRect,0.135000X-0.135000X-0.185000X0.135000X-0.185000X0.135000X0.185000X-0.135000X0.185000X0*%
%ADD18RoundRect,0.250000X-0.250000X-0.475000X0.250000X-0.475000X0.250000X0.475000X-0.250000X0.475000X0*%
%ADD19RoundRect,0.140000X0.140000X0.170000X-0.140000X0.170000X-0.140000X-0.170000X0.140000X-0.170000X0*%
%ADD20RoundRect,0.150000X0.150000X0.700000X-0.150000X0.700000X-0.150000X-0.700000X0.150000X-0.700000X0*%
%ADD21RoundRect,0.250000X0.250000X1.100000X-0.250000X1.100000X-0.250000X-1.100000X0.250000X-1.100000X0*%
%ADD22RoundRect,0.135000X0.135000X0.185000X-0.135000X0.185000X-0.135000X-0.185000X0.135000X-0.185000X0*%
%ADD23RoundRect,0.135000X0.185000X-0.135000X0.185000X0.135000X-0.185000X0.135000X-0.185000X-0.135000X0*%
%ADD24RoundRect,0.250000X0.250000X0.475000X-0.250000X0.475000X-0.250000X-0.475000X0.250000X-0.475000X0*%
%ADD25FreePoly0,90.000000*%
%ADD26R,0.249999X0.700001*%
%ADD27FreePoly1,90.000000*%
%ADD28FreePoly2,90.000000*%
%ADD29FreePoly3,90.000000*%
%ADD30R,0.700001X0.249999*%
%ADD31RoundRect,0.100000X-0.100000X0.225000X-0.100000X-0.225000X0.100000X-0.225000X0.100000X0.225000X0*%
%ADD32RoundRect,0.050050X0.424950X0.274950X-0.424950X0.274950X-0.424950X-0.274950X0.424950X-0.274950X0*%
%ADD33RoundRect,0.049800X0.250200X0.525200X-0.250200X0.525200X-0.250200X-0.525200X0.250200X-0.525200X0*%
%ADD34RoundRect,0.050000X0.650000X0.200000X-0.650000X0.200000X-0.650000X-0.200000X0.650000X-0.200000X0*%
%ADD35RoundRect,0.050050X0.299950X0.124950X-0.299950X0.124950X-0.299950X-0.124950X0.299950X-0.124950X0*%
%ADD36R,1.240000X0.600000*%
%ADD37R,1.240000X0.300000*%
%ADD38RoundRect,0.237500X-0.250000X-0.237500X0.250000X-0.237500X0.250000X0.237500X-0.250000X0.237500X0*%
%ADD39RoundRect,0.250000X-0.315000X-0.315000X0.315000X-0.315000X0.315000X0.315000X-0.315000X0.315000X0*%
%ADD40RoundRect,0.062500X-0.375000X-0.062500X0.375000X-0.062500X0.375000X0.062500X-0.375000X0.062500X0*%
%ADD41RoundRect,0.062500X-0.062500X-0.375000X0.062500X-0.375000X0.062500X0.375000X-0.062500X0.375000X0*%
G04 APERTURE END LIST*
D10*
G04 #@! TO.C,U7*
G36*
X73301251Y-101393116D02*
G01*
X73301251Y-102333116D01*
X73251251Y-102383116D01*
X72141251Y-102383116D01*
X72091251Y-102333116D01*
X72091251Y-101393116D01*
X72141251Y-101343116D01*
X73251251Y-101343116D01*
X73301251Y-101393116D01*
G37*
G36*
X73301251Y-100153115D02*
G01*
X73301251Y-101093116D01*
X73251251Y-101143116D01*
X72141251Y-101143116D01*
X72091251Y-101093116D01*
X72091251Y-100153115D01*
X72141251Y-100103116D01*
X73251251Y-100103116D01*
X73301251Y-100153115D01*
G37*
G36*
X75574251Y-100213115D02*
G01*
X75574251Y-101823115D01*
X75524252Y-101873115D01*
X73874250Y-101873115D01*
X73824250Y-101823115D01*
X73824250Y-100213115D01*
X73874250Y-100163115D01*
X75524252Y-100163115D01*
X75574251Y-100213115D01*
G37*
G36*
X77856251Y-100213115D02*
G01*
X77856251Y-101823115D01*
X77806251Y-101873115D01*
X76196252Y-101873115D01*
X76146252Y-101823115D01*
X76146252Y-100213115D01*
X76196252Y-100163115D01*
X77806251Y-100163115D01*
X77856251Y-100213115D01*
G37*
G36*
X78381752Y-100618116D02*
G01*
X78381752Y-100768115D01*
X78331752Y-100818115D01*
X78106751Y-100818115D01*
X78056751Y-100768115D01*
X78056751Y-100618116D01*
X78106751Y-100568116D01*
X78331752Y-100568116D01*
X78381752Y-100618116D01*
G37*
G36*
X78381752Y-101118115D02*
G01*
X78381752Y-101268115D01*
X78331752Y-101318114D01*
X78106751Y-101318114D01*
X78056751Y-101268115D01*
X78056751Y-101118115D01*
X78106751Y-101068115D01*
X78331752Y-101068115D01*
X78381752Y-101118115D01*
G37*
G36*
X78381752Y-101618114D02*
G01*
X78381752Y-101768116D01*
X78331752Y-101818116D01*
X78106751Y-101818116D01*
X78056751Y-101768116D01*
X78056751Y-101618114D01*
X78106751Y-101568114D01*
X78331752Y-101568114D01*
X78381752Y-101618114D01*
G37*
G36*
X71731249Y-98618115D02*
G01*
X71731252Y-99218116D01*
X71681252Y-99268116D01*
X71031251Y-99268116D01*
X70981251Y-99218114D01*
X70981251Y-99068114D01*
X71031251Y-99018114D01*
X71431250Y-99018116D01*
X71481250Y-98968117D01*
X71481250Y-98618115D01*
X71531250Y-98568115D01*
X71681252Y-98568115D01*
X71731249Y-98618115D01*
G37*
G36*
X78031249Y-102818116D02*
G01*
X78031252Y-103093115D01*
X77981252Y-103143115D01*
X77693249Y-103143115D01*
X77643249Y-103193114D01*
X77643249Y-103418115D01*
X77593249Y-103468115D01*
X77443250Y-103468115D01*
X77393250Y-103418115D01*
X77393250Y-103193114D01*
X77343250Y-103143115D01*
X77193250Y-103143115D01*
X77143250Y-103193114D01*
X77143250Y-103418115D01*
X77093250Y-103468115D01*
X76943251Y-103468115D01*
X76893251Y-103418115D01*
X76893248Y-103193114D01*
X76843251Y-103143115D01*
X76693251Y-103143115D01*
X76643251Y-103193114D01*
X76643251Y-103418115D01*
X76593251Y-103468115D01*
X76443252Y-103468115D01*
X76393252Y-103418115D01*
X76393252Y-103193114D01*
X76343252Y-103143115D01*
X76193252Y-103143115D01*
X76143252Y-103193114D01*
X76143252Y-103418115D01*
X76093250Y-103468115D01*
X75943250Y-103468115D01*
X75893253Y-103418115D01*
X75893250Y-103193114D01*
X75843250Y-103143115D01*
X75693250Y-103143115D01*
X75643251Y-103193114D01*
X75643251Y-103418115D01*
X75593251Y-103468115D01*
X75443251Y-103468115D01*
X75393251Y-103418115D01*
X75393251Y-103193114D01*
X75343249Y-103143115D01*
X75193249Y-103143115D01*
X75143249Y-103193114D01*
X75143249Y-103418115D01*
X75093249Y-103468115D01*
X74943249Y-103468115D01*
X74893252Y-103418115D01*
X74893252Y-103193114D01*
X74843250Y-103143115D01*
X74693247Y-103143115D01*
X74643253Y-103193114D01*
X74643253Y-103418115D01*
X74593250Y-103468115D01*
X74443253Y-103468115D01*
X74393251Y-103418115D01*
X74393253Y-103193114D01*
X74343251Y-103143115D01*
X74081252Y-103143115D01*
X74031252Y-103093115D01*
X74031250Y-102818114D01*
X74081252Y-102768117D01*
X77981252Y-102768114D01*
X78031249Y-102818116D01*
G37*
G04 #@! TO.C,U9*
G36*
X83695001Y-101393116D02*
G01*
X83695001Y-102333116D01*
X83645001Y-102383116D01*
X82535001Y-102383116D01*
X82485001Y-102333116D01*
X82485001Y-101393116D01*
X82535001Y-101343116D01*
X83645001Y-101343116D01*
X83695001Y-101393116D01*
G37*
G36*
X83695001Y-100153115D02*
G01*
X83695001Y-101093116D01*
X83645001Y-101143116D01*
X82535001Y-101143116D01*
X82485001Y-101093116D01*
X82485001Y-100153115D01*
X82535001Y-100103116D01*
X83645001Y-100103116D01*
X83695001Y-100153115D01*
G37*
G36*
X85968001Y-100213115D02*
G01*
X85968001Y-101823115D01*
X85918002Y-101873115D01*
X84268000Y-101873115D01*
X84218000Y-101823115D01*
X84218000Y-100213115D01*
X84268000Y-100163115D01*
X85918002Y-100163115D01*
X85968001Y-100213115D01*
G37*
G36*
X88250001Y-100213115D02*
G01*
X88250001Y-101823115D01*
X88200001Y-101873115D01*
X86590002Y-101873115D01*
X86540002Y-101823115D01*
X86540002Y-100213115D01*
X86590002Y-100163115D01*
X88200001Y-100163115D01*
X88250001Y-100213115D01*
G37*
G36*
X88775502Y-100618116D02*
G01*
X88775502Y-100768115D01*
X88725502Y-100818115D01*
X88500501Y-100818115D01*
X88450501Y-100768115D01*
X88450501Y-100618116D01*
X88500501Y-100568116D01*
X88725502Y-100568116D01*
X88775502Y-100618116D01*
G37*
G36*
X88775502Y-101118115D02*
G01*
X88775502Y-101268115D01*
X88725502Y-101318114D01*
X88500501Y-101318114D01*
X88450501Y-101268115D01*
X88450501Y-101118115D01*
X88500501Y-101068115D01*
X88725502Y-101068115D01*
X88775502Y-101118115D01*
G37*
G36*
X88775502Y-101618114D02*
G01*
X88775502Y-101768116D01*
X88725502Y-101818116D01*
X88500501Y-101818116D01*
X88450501Y-101768116D01*
X88450501Y-101618114D01*
X88500501Y-101568114D01*
X88725502Y-101568114D01*
X88775502Y-101618114D01*
G37*
G36*
X82124999Y-98618115D02*
G01*
X82125002Y-99218116D01*
X82075002Y-99268116D01*
X81425001Y-99268116D01*
X81375001Y-99218114D01*
X81375001Y-99068114D01*
X81425001Y-99018114D01*
X81825000Y-99018116D01*
X81875000Y-98968117D01*
X81875000Y-98618115D01*
X81925000Y-98568115D01*
X82075002Y-98568115D01*
X82124999Y-98618115D01*
G37*
G36*
X88424999Y-102818116D02*
G01*
X88425002Y-103093115D01*
X88375002Y-103143115D01*
X88086999Y-103143115D01*
X88036999Y-103193114D01*
X88036999Y-103418115D01*
X87986999Y-103468115D01*
X87837000Y-103468115D01*
X87787000Y-103418115D01*
X87787000Y-103193114D01*
X87737000Y-103143115D01*
X87587000Y-103143115D01*
X87537000Y-103193114D01*
X87537000Y-103418115D01*
X87487000Y-103468115D01*
X87337001Y-103468115D01*
X87287001Y-103418115D01*
X87286998Y-103193114D01*
X87237001Y-103143115D01*
X87087001Y-103143115D01*
X87037001Y-103193114D01*
X87037001Y-103418115D01*
X86987001Y-103468115D01*
X86837002Y-103468115D01*
X86787002Y-103418115D01*
X86787002Y-103193114D01*
X86737002Y-103143115D01*
X86587002Y-103143115D01*
X86537002Y-103193114D01*
X86537002Y-103418115D01*
X86487000Y-103468115D01*
X86337000Y-103468115D01*
X86287003Y-103418115D01*
X86287000Y-103193114D01*
X86237000Y-103143115D01*
X86087000Y-103143115D01*
X86037001Y-103193114D01*
X86037001Y-103418115D01*
X85987001Y-103468115D01*
X85837001Y-103468115D01*
X85787001Y-103418115D01*
X85787001Y-103193114D01*
X85736999Y-103143115D01*
X85586999Y-103143115D01*
X85536999Y-103193114D01*
X85536999Y-103418115D01*
X85486999Y-103468115D01*
X85336999Y-103468115D01*
X85287002Y-103418115D01*
X85287002Y-103193114D01*
X85237000Y-103143115D01*
X85086997Y-103143115D01*
X85037003Y-103193114D01*
X85037003Y-103418115D01*
X84987000Y-103468115D01*
X84837003Y-103468115D01*
X84787001Y-103418115D01*
X84787003Y-103193114D01*
X84737001Y-103143115D01*
X84475002Y-103143115D01*
X84425002Y-103093115D01*
X84425000Y-102818114D01*
X84475002Y-102768117D01*
X88375002Y-102768114D01*
X88424999Y-102818116D01*
G37*
G04 #@! TO.C,U11*
G36*
X93886426Y-101393116D02*
G01*
X93886426Y-102333116D01*
X93836426Y-102383116D01*
X92726426Y-102383116D01*
X92676426Y-102333116D01*
X92676426Y-101393116D01*
X92726426Y-101343116D01*
X93836426Y-101343116D01*
X93886426Y-101393116D01*
G37*
G36*
X93886426Y-100153115D02*
G01*
X93886426Y-101093116D01*
X93836426Y-101143116D01*
X92726426Y-101143116D01*
X92676426Y-101093116D01*
X92676426Y-100153115D01*
X92726426Y-100103116D01*
X93836426Y-100103116D01*
X93886426Y-100153115D01*
G37*
G36*
X96159426Y-100213115D02*
G01*
X96159426Y-101823115D01*
X96109427Y-101873115D01*
X94459425Y-101873115D01*
X94409425Y-101823115D01*
X94409425Y-100213115D01*
X94459425Y-100163115D01*
X96109427Y-100163115D01*
X96159426Y-100213115D01*
G37*
G36*
X98441426Y-100213115D02*
G01*
X98441426Y-101823115D01*
X98391426Y-101873115D01*
X96781427Y-101873115D01*
X96731427Y-101823115D01*
X96731427Y-100213115D01*
X96781427Y-100163115D01*
X98391426Y-100163115D01*
X98441426Y-100213115D01*
G37*
G36*
X98966927Y-100618116D02*
G01*
X98966927Y-100768115D01*
X98916927Y-100818115D01*
X98691926Y-100818115D01*
X98641926Y-100768115D01*
X98641926Y-100618116D01*
X98691926Y-100568116D01*
X98916927Y-100568116D01*
X98966927Y-100618116D01*
G37*
G36*
X98966927Y-101118115D02*
G01*
X98966927Y-101268115D01*
X98916927Y-101318114D01*
X98691926Y-101318114D01*
X98641926Y-101268115D01*
X98641926Y-101118115D01*
X98691926Y-101068115D01*
X98916927Y-101068115D01*
X98966927Y-101118115D01*
G37*
G36*
X98966927Y-101618114D02*
G01*
X98966927Y-101768116D01*
X98916927Y-101818116D01*
X98691926Y-101818116D01*
X98641926Y-101768116D01*
X98641926Y-101618114D01*
X98691926Y-101568114D01*
X98916927Y-101568114D01*
X98966927Y-101618114D01*
G37*
G36*
X92316424Y-98618115D02*
G01*
X92316427Y-99218116D01*
X92266427Y-99268116D01*
X91616426Y-99268116D01*
X91566426Y-99218114D01*
X91566426Y-99068114D01*
X91616426Y-99018114D01*
X92016425Y-99018116D01*
X92066425Y-98968117D01*
X92066425Y-98618115D01*
X92116425Y-98568115D01*
X92266427Y-98568115D01*
X92316424Y-98618115D01*
G37*
G36*
X98616424Y-102818116D02*
G01*
X98616427Y-103093115D01*
X98566427Y-103143115D01*
X98278424Y-103143115D01*
X98228424Y-103193114D01*
X98228424Y-103418115D01*
X98178424Y-103468115D01*
X98028425Y-103468115D01*
X97978425Y-103418115D01*
X97978425Y-103193114D01*
X97928425Y-103143115D01*
X97778425Y-103143115D01*
X97728425Y-103193114D01*
X97728425Y-103418115D01*
X97678425Y-103468115D01*
X97528426Y-103468115D01*
X97478426Y-103418115D01*
X97478423Y-103193114D01*
X97428426Y-103143115D01*
X97278426Y-103143115D01*
X97228426Y-103193114D01*
X97228426Y-103418115D01*
X97178426Y-103468115D01*
X97028427Y-103468115D01*
X96978427Y-103418115D01*
X96978427Y-103193114D01*
X96928427Y-103143115D01*
X96778427Y-103143115D01*
X96728427Y-103193114D01*
X96728427Y-103418115D01*
X96678425Y-103468115D01*
X96528425Y-103468115D01*
X96478428Y-103418115D01*
X96478425Y-103193114D01*
X96428425Y-103143115D01*
X96278425Y-103143115D01*
X96228426Y-103193114D01*
X96228426Y-103418115D01*
X96178426Y-103468115D01*
X96028426Y-103468115D01*
X95978426Y-103418115D01*
X95978426Y-103193114D01*
X95928424Y-103143115D01*
X95778424Y-103143115D01*
X95728424Y-103193114D01*
X95728424Y-103418115D01*
X95678424Y-103468115D01*
X95528424Y-103468115D01*
X95478427Y-103418115D01*
X95478427Y-103193114D01*
X95428425Y-103143115D01*
X95278422Y-103143115D01*
X95228428Y-103193114D01*
X95228428Y-103418115D01*
X95178425Y-103468115D01*
X95028428Y-103468115D01*
X94978426Y-103418115D01*
X94978428Y-103193114D01*
X94928426Y-103143115D01*
X94666427Y-103143115D01*
X94616427Y-103093115D01*
X94616425Y-102818114D01*
X94666427Y-102768117D01*
X98566427Y-102768114D01*
X98616424Y-102818116D01*
G37*
G04 #@! TD*
D11*
G04 #@! TO.C,R10*
X78036749Y-78661586D03*
X78036749Y-79681586D03*
G04 #@! TD*
D12*
G04 #@! TO.C,C52*
X93585175Y-91975000D03*
X93585175Y-89025000D03*
G04 #@! TD*
D13*
G04 #@! TO.C,C5*
X84800000Y-86800000D03*
X85760000Y-86800000D03*
G04 #@! TD*
D11*
G04 #@! TO.C,R9*
X78036749Y-80579607D03*
X78036749Y-81599607D03*
G04 #@! TD*
D14*
G04 #@! TO.C,C36*
X89656913Y-99192154D03*
X89656913Y-100152154D03*
G04 #@! TD*
D12*
G04 #@! TO.C,C40*
X88393750Y-91975000D03*
X88393750Y-89025000D03*
G04 #@! TD*
D15*
G04 #@! TO.C,C66*
X89628221Y-102964009D03*
X89628221Y-102004009D03*
G04 #@! TD*
D14*
G04 #@! TO.C,C10*
X69720112Y-76168251D03*
X69720112Y-77128251D03*
G04 #@! TD*
D16*
G04 #@! TO.C,R24*
X88076489Y-106117834D03*
X82151489Y-106117834D03*
G04 #@! TD*
D14*
G04 #@! TO.C,C17*
X81878483Y-75590169D03*
X81878483Y-76550169D03*
G04 #@! TD*
D12*
G04 #@! TO.C,C58*
X98585175Y-91975000D03*
X98585175Y-89025000D03*
G04 #@! TD*
G04 #@! TO.C,C44*
X80893750Y-91975000D03*
X80893750Y-89025000D03*
G04 #@! TD*
G04 #@! TO.C,C27*
X78000000Y-91975000D03*
X78000000Y-89025000D03*
G04 #@! TD*
D17*
G04 #@! TO.C,R33*
X72180000Y-85200000D03*
X73200000Y-85200000D03*
G04 #@! TD*
D16*
G04 #@! TO.C,R29*
X98267914Y-106117834D03*
X92342914Y-106117834D03*
G04 #@! TD*
D18*
G04 #@! TO.C,C34*
X75250000Y-83400000D03*
X77150000Y-83400000D03*
G04 #@! TD*
D19*
G04 #@! TO.C,C16*
X79988505Y-73544138D03*
X79028505Y-73544138D03*
G04 #@! TD*
D14*
G04 #@! TO.C,C22*
X79263163Y-99192154D03*
X79263163Y-100152154D03*
G04 #@! TD*
D15*
G04 #@! TO.C,C65*
X79234471Y-102964009D03*
X79234471Y-102004009D03*
G04 #@! TD*
D12*
G04 #@! TO.C,C38*
X83393750Y-91975000D03*
X83393750Y-89025000D03*
G04 #@! TD*
D14*
G04 #@! TO.C,C50*
X99848338Y-99192154D03*
X99848338Y-100152154D03*
G04 #@! TD*
D20*
G04 #@! TO.C,J2*
X98666233Y-67567151D03*
X97416233Y-67567151D03*
X96166233Y-67567151D03*
X94916233Y-67567151D03*
D21*
X100516233Y-64367151D03*
X93066233Y-64367151D03*
G04 #@! TD*
D15*
G04 #@! TO.C,C33*
X70400000Y-105747289D03*
X70400000Y-104787289D03*
G04 #@! TD*
D12*
G04 #@! TO.C,C24*
X70500000Y-91975000D03*
X70500000Y-89025000D03*
G04 #@! TD*
D11*
G04 #@! TO.C,R32*
X89854050Y-104757289D03*
X89854050Y-105777289D03*
G04 #@! TD*
D12*
G04 #@! TO.C,C56*
X91085175Y-91975000D03*
X91085175Y-89025000D03*
G04 #@! TD*
D22*
G04 #@! TO.C,R34*
X75485000Y-85200000D03*
X74465000Y-85200000D03*
G04 #@! TD*
D23*
G04 #@! TO.C,R12*
X70652205Y-77167650D03*
X70652205Y-76147650D03*
G04 #@! TD*
D24*
G04 #@! TO.C,C48*
X73763740Y-75465217D03*
X71863740Y-75465217D03*
G04 #@! TD*
D12*
G04 #@! TO.C,C64*
X96085175Y-91975000D03*
X96085175Y-89025000D03*
G04 #@! TD*
G04 #@! TO.C,C25*
X73000000Y-91975000D03*
X73000000Y-89025000D03*
G04 #@! TD*
D13*
G04 #@! TO.C,C37*
X81531225Y-97725890D03*
X82491225Y-97725890D03*
G04 #@! TD*
D14*
G04 #@! TO.C,C21*
X70209364Y-101370684D03*
X70209364Y-102330684D03*
G04 #@! TD*
G04 #@! TO.C,C49*
X90842978Y-101313244D03*
X90842978Y-102273244D03*
G04 #@! TD*
D25*
G04 #@! TO.C,U7*
X71556251Y-102943115D03*
D26*
X72106250Y-103118116D03*
X72606251Y-103118116D03*
X73106250Y-103118116D03*
D27*
X76500000Y-102986864D03*
D28*
X76499995Y-99049366D03*
D26*
X73106250Y-98918114D03*
X72606251Y-98918114D03*
X72106250Y-98918114D03*
D29*
X71556251Y-99093115D03*
D30*
X71331250Y-100193115D03*
X71331250Y-100693114D03*
X71331250Y-101193116D03*
X71331250Y-101693115D03*
X71331250Y-102193114D03*
G04 #@! TD*
D17*
G04 #@! TO.C,R26*
X79662799Y-106755043D03*
X80682799Y-106755043D03*
G04 #@! TD*
D25*
G04 #@! TO.C,U9*
X81950001Y-102943115D03*
D26*
X82500000Y-103118116D03*
X83000001Y-103118116D03*
X83500000Y-103118116D03*
D27*
X86893750Y-102986864D03*
D28*
X86893745Y-99049366D03*
D26*
X83500000Y-98918114D03*
X83000001Y-98918114D03*
X82500000Y-98918114D03*
D29*
X81950001Y-99093115D03*
D30*
X81725000Y-100193115D03*
X81725000Y-100693114D03*
X81725000Y-101193116D03*
X81725000Y-101693115D03*
X81725000Y-102193114D03*
G04 #@! TD*
D31*
G04 #@! TO.C,U14*
X80650000Y-74650000D03*
X80000000Y-74650000D03*
X79350000Y-74650000D03*
X79350000Y-76550000D03*
X80650000Y-76550000D03*
G04 #@! TD*
D18*
G04 #@! TO.C,C11*
X75258817Y-75460910D03*
X77158817Y-75460910D03*
G04 #@! TD*
D13*
G04 #@! TO.C,C51*
X91722650Y-97725890D03*
X92682650Y-97725890D03*
G04 #@! TD*
D12*
G04 #@! TO.C,C39*
X85893750Y-91975000D03*
X85893750Y-89025000D03*
G04 #@! TD*
D11*
G04 #@! TO.C,R22*
X69400000Y-104757289D03*
X69400000Y-105777289D03*
G04 #@! TD*
G04 #@! TO.C,R27*
X79662625Y-104757289D03*
X79662625Y-105777289D03*
G04 #@! TD*
D20*
G04 #@! TO.C,J6*
X86777181Y-67601415D03*
X85527181Y-67601415D03*
X84277181Y-67601415D03*
D21*
X88627181Y-64401415D03*
X82427181Y-64401415D03*
G04 #@! TD*
D32*
G04 #@! TO.C,U3*
X75129639Y-79920554D03*
X75129639Y-78970554D03*
D33*
X74929639Y-81120554D03*
X74929639Y-77770554D03*
X74079639Y-81120554D03*
X74079639Y-77770554D03*
D32*
X73879639Y-79920554D03*
X73879639Y-78970554D03*
D34*
X76504639Y-81590554D03*
D35*
X76854639Y-80615554D03*
X76854639Y-79965554D03*
X76854639Y-79315554D03*
X76854639Y-78665554D03*
X76854639Y-78015554D03*
D34*
X76504639Y-77290554D03*
X72504639Y-77290554D03*
D35*
X72154639Y-78015554D03*
X72154639Y-78665554D03*
X72154639Y-79315554D03*
X72154639Y-79965554D03*
X72154639Y-80615554D03*
D34*
X72504639Y-81590554D03*
G04 #@! TD*
D36*
G04 #@! TO.C,J3*
X93700000Y-82310000D03*
X93700000Y-81510000D03*
D37*
X93700000Y-80360000D03*
X93700000Y-79360000D03*
X93700000Y-78860000D03*
X93700000Y-77860000D03*
D36*
X93700000Y-76710000D03*
X93700000Y-75910000D03*
X93700000Y-75910000D03*
X93700000Y-76710000D03*
D37*
X93700000Y-77360000D03*
X93700000Y-78360000D03*
X93700000Y-79860000D03*
X93700000Y-80860000D03*
D36*
X93700000Y-81510000D03*
X93700000Y-82310000D03*
G04 #@! TD*
D14*
G04 #@! TO.C,C35*
X80603114Y-101370684D03*
X80603114Y-102330684D03*
G04 #@! TD*
D11*
G04 #@! TO.C,R23*
X80393750Y-97990000D03*
X80393750Y-99010000D03*
G04 #@! TD*
D15*
G04 #@! TO.C,C67*
X99819646Y-102964009D03*
X99819646Y-102004009D03*
G04 #@! TD*
D11*
G04 #@! TO.C,R28*
X90585175Y-97990000D03*
X90585175Y-99010000D03*
G04 #@! TD*
D20*
G04 #@! TO.C,J1*
X75888649Y-67561204D03*
X74638649Y-67561204D03*
X73388649Y-67561204D03*
X72138649Y-67561204D03*
D21*
X77738649Y-64361204D03*
X70288649Y-64361204D03*
G04 #@! TD*
D15*
G04 #@! TO.C,C61*
X90857221Y-105747289D03*
X90857221Y-104787289D03*
G04 #@! TD*
D24*
G04 #@! TO.C,C3*
X73750000Y-83400000D03*
X71850000Y-83400000D03*
G04 #@! TD*
D11*
G04 #@! TO.C,R18*
X70000000Y-97990000D03*
X70000000Y-99010000D03*
G04 #@! TD*
D12*
G04 #@! TO.C,C26*
X75500000Y-91975000D03*
X75500000Y-89025000D03*
G04 #@! TD*
D13*
G04 #@! TO.C,C23*
X71137475Y-97725890D03*
X72097475Y-97725890D03*
G04 #@! TD*
D38*
G04 #@! TO.C,R2*
X96087500Y-72600000D03*
X97912500Y-72600000D03*
G04 #@! TD*
D17*
G04 #@! TO.C,R31*
X89854224Y-106755043D03*
X90874224Y-106755043D03*
G04 #@! TD*
D16*
G04 #@! TO.C,R19*
X77682739Y-106117834D03*
X71757739Y-106117834D03*
G04 #@! TD*
D23*
G04 #@! TO.C,R13*
X70652205Y-79033975D03*
X70652205Y-78013975D03*
G04 #@! TD*
D17*
G04 #@! TO.C,R21*
X69386458Y-106752397D03*
X70406458Y-106752397D03*
G04 #@! TD*
D25*
G04 #@! TO.C,U11*
X92141426Y-102943115D03*
D26*
X92691425Y-103118116D03*
X93191426Y-103118116D03*
X93691425Y-103118116D03*
D27*
X97085175Y-102986864D03*
D28*
X97085170Y-99049366D03*
D26*
X93691425Y-98918114D03*
X93191426Y-98918114D03*
X92691425Y-98918114D03*
D29*
X92141426Y-99093115D03*
D30*
X91916425Y-100193115D03*
X91916425Y-100693114D03*
X91916425Y-101193116D03*
X91916425Y-101693115D03*
X91916425Y-102193114D03*
G04 #@! TD*
D39*
G04 #@! TO.C,U4*
X83450000Y-79550000D03*
X83450000Y-80950000D03*
X83450000Y-82350000D03*
X83450000Y-83750000D03*
X84850000Y-79550000D03*
X84850000Y-80950000D03*
X84850000Y-82350000D03*
X84850000Y-83750000D03*
X86250000Y-79550000D03*
X86250000Y-80950000D03*
X86250000Y-82350000D03*
X86250000Y-83750000D03*
X87650000Y-79550000D03*
X87650000Y-80950000D03*
X87650000Y-82350000D03*
X87650000Y-83750000D03*
D40*
X82112500Y-78900000D03*
X82112500Y-79400000D03*
X82112500Y-79900000D03*
X82112500Y-80400000D03*
X82112500Y-80900000D03*
X82112500Y-81400000D03*
X82112500Y-81900000D03*
X82112500Y-82400000D03*
X82112500Y-82900000D03*
X82112500Y-83400000D03*
X82112500Y-83900000D03*
X82112500Y-84400000D03*
D41*
X82800000Y-85087500D03*
X83300000Y-85087500D03*
X83800000Y-85087500D03*
X84300000Y-85087500D03*
X84800000Y-85087500D03*
X85300000Y-85087500D03*
X85800000Y-85087500D03*
X86300000Y-85087500D03*
X86800000Y-85087500D03*
X87300000Y-85087500D03*
X87800000Y-85087500D03*
X88300000Y-85087500D03*
D40*
X88987500Y-84400000D03*
X88987500Y-83900000D03*
X88987500Y-83400000D03*
X88987500Y-82900000D03*
X88987500Y-82400000D03*
X88987500Y-81900000D03*
X88987500Y-81400000D03*
X88987500Y-80900000D03*
X88987500Y-80400000D03*
X88987500Y-79900000D03*
X88987500Y-79400000D03*
X88987500Y-78900000D03*
D41*
X88300000Y-78212500D03*
X87800000Y-78212500D03*
X87300000Y-78212500D03*
X86800000Y-78212500D03*
X86300000Y-78212500D03*
X85800000Y-78212500D03*
X85300000Y-78212500D03*
X84800000Y-78212500D03*
X84300000Y-78212500D03*
X83800000Y-78212500D03*
X83300000Y-78212500D03*
X82800000Y-78212500D03*
G04 #@! TD*
D15*
G04 #@! TO.C,C47*
X80665796Y-105747289D03*
X80665796Y-104787289D03*
G04 #@! TD*
M02*
