G04 #@! TF.GenerationSoftware,KiCad,Pcbnew,9.0.2*
G04 #@! TF.CreationDate,2025-11-16T13:06:36+01:00*
G04 #@! TF.ProjectId,Flying_FOCer,466c7969-6e67-45f4-964f-4365722e6b69,rev?*
G04 #@! TF.SameCoordinates,Original*
G04 #@! TF.FileFunction,Soldermask,Bot*
G04 #@! TF.FilePolarity,Negative*
%FSLAX46Y46*%
G04 Gerber Fmt 4.6, Leading zero omitted, Abs format (unit mm)*
G04 Created by KiCad (PCBNEW 9.0.2) date 2025-11-16 13:06:36*
%MOMM*%
%LPD*%
G01*
G04 APERTURE LIST*
G04 Aperture macros list*
%AMRoundRect*
0 Rectangle with rounded corners*
0 $1 Rounding radius*
0 $2 $3 $4 $5 $6 $7 $8 $9 X,Y pos of 4 corners*
0 Add a 4 corners polygon primitive as box body*
4,1,4,$2,$3,$4,$5,$6,$7,$8,$9,$2,$3,0*
0 Add four circle primitives for the rounded corners*
1,1,$1+$1,$2,$3*
1,1,$1+$1,$4,$5*
1,1,$1+$1,$6,$7*
1,1,$1+$1,$8,$9*
0 Add four rect primitives between the rounded corners*
20,1,$1+$1,$2,$3,$4,$5,0*
20,1,$1+$1,$4,$5,$6,$7,0*
20,1,$1+$1,$6,$7,$8,$9,0*
20,1,$1+$1,$8,$9,$2,$3,0*%
G04 Aperture macros list end*
%ADD10C,0.700000*%
%ADD11C,4.400000*%
%ADD12C,0.500000*%
%ADD13C,0.650000*%
%ADD14O,2.100000X1.000000*%
%ADD15O,1.800000X1.000000*%
%ADD16RoundRect,0.250000X-0.650000X0.325000X-0.650000X-0.325000X0.650000X-0.325000X0.650000X0.325000X0*%
%ADD17RoundRect,0.250000X0.475000X-0.250000X0.475000X0.250000X-0.475000X0.250000X-0.475000X-0.250000X0*%
%ADD18RoundRect,0.100000X-0.712500X-0.100000X0.712500X-0.100000X0.712500X0.100000X-0.712500X0.100000X0*%
%ADD19RoundRect,0.140000X-0.219203X-0.021213X-0.021213X-0.219203X0.219203X0.021213X0.021213X0.219203X0*%
%ADD20RoundRect,0.135000X0.135000X0.185000X-0.135000X0.185000X-0.135000X-0.185000X0.135000X-0.185000X0*%
%ADD21RoundRect,0.237500X-0.237500X0.250000X-0.237500X-0.250000X0.237500X-0.250000X0.237500X0.250000X0*%
%ADD22RoundRect,0.140000X-0.140000X-0.170000X0.140000X-0.170000X0.140000X0.170000X-0.140000X0.170000X0*%
%ADD23RoundRect,0.140000X0.170000X-0.140000X0.170000X0.140000X-0.170000X0.140000X-0.170000X-0.140000X0*%
%ADD24RoundRect,0.140000X-0.170000X0.140000X-0.170000X-0.140000X0.170000X-0.140000X0.170000X0.140000X0*%
%ADD25C,0.990600*%
%ADD26C,0.787400*%
%ADD27RoundRect,0.135000X-0.185000X0.135000X-0.185000X-0.135000X0.185000X-0.135000X0.185000X0.135000X0*%
%ADD28RoundRect,0.150000X0.150000X-0.825000X0.150000X0.825000X-0.150000X0.825000X-0.150000X-0.825000X0*%
%ADD29RoundRect,0.135000X-0.135000X-0.185000X0.135000X-0.185000X0.135000X0.185000X-0.135000X0.185000X0*%
%ADD30RoundRect,0.140000X0.140000X0.170000X-0.140000X0.170000X-0.140000X-0.170000X0.140000X-0.170000X0*%
%ADD31C,1.000000*%
%ADD32RoundRect,0.237500X0.237500X-0.250000X0.237500X0.250000X-0.237500X0.250000X-0.237500X-0.250000X0*%
%ADD33RoundRect,0.250000X0.565685X-0.070711X-0.070711X0.565685X-0.565685X0.070711X0.070711X-0.565685X0*%
%ADD34RoundRect,0.150000X-0.587500X-0.150000X0.587500X-0.150000X0.587500X0.150000X-0.587500X0.150000X0*%
%ADD35R,1.500000X1.100000*%
%ADD36RoundRect,0.100000X0.100000X-0.225000X0.100000X0.225000X-0.100000X0.225000X-0.100000X-0.225000X0*%
%ADD37RoundRect,0.135000X0.185000X-0.135000X0.185000X0.135000X-0.185000X0.135000X-0.185000X-0.135000X0*%
%ADD38RoundRect,0.237500X-0.250000X-0.237500X0.250000X-0.237500X0.250000X0.237500X-0.250000X0.237500X0*%
%ADD39RoundRect,0.237500X0.250000X0.237500X-0.250000X0.237500X-0.250000X-0.237500X0.250000X-0.237500X0*%
%ADD40RoundRect,0.218750X0.218750X0.256250X-0.218750X0.256250X-0.218750X-0.256250X0.218750X-0.256250X0*%
G04 APERTURE END LIST*
D10*
G04 #@! TO.C,H3*
X83583274Y-112358274D03*
X84066548Y-111191548D03*
X84066548Y-113525000D03*
X85233274Y-110708274D03*
D11*
X85233274Y-112358274D03*
D10*
X85233274Y-114008274D03*
X86400000Y-111191548D03*
X86400000Y-113525000D03*
X86883274Y-112358274D03*
G04 #@! TD*
G04 #@! TO.C,H2*
X93883274Y-112633274D03*
X94366548Y-111466548D03*
X94366548Y-113800000D03*
X95533274Y-110983274D03*
D11*
X95533274Y-112633274D03*
D10*
X95533274Y-114283274D03*
X96700000Y-111466548D03*
X96700000Y-113800000D03*
X97183274Y-112633274D03*
G04 #@! TD*
D12*
G04 #@! TO.C,U3*
X75454639Y-80395554D03*
X75454639Y-79445554D03*
X75454639Y-78495554D03*
X74504639Y-81345554D03*
X74504639Y-80395554D03*
X74504639Y-79445554D03*
X74504639Y-78495554D03*
X74504639Y-77545554D03*
X73554639Y-80395554D03*
X73554639Y-79445554D03*
X73554639Y-78495554D03*
G04 #@! TD*
D13*
G04 #@! TO.C,J3*
X94820000Y-82000000D03*
X94820000Y-76220000D03*
D14*
X94300000Y-83430000D03*
D15*
X98500000Y-83430000D03*
D14*
X94300000Y-74790000D03*
D15*
X98500000Y-74790000D03*
G04 #@! TD*
D10*
G04 #@! TO.C,H1*
X73183274Y-112633274D03*
X73666548Y-111466548D03*
X73666548Y-113800000D03*
X74833274Y-110983274D03*
D11*
X74833274Y-112633274D03*
D10*
X74833274Y-114283274D03*
X76000000Y-111466548D03*
X76000000Y-113800000D03*
X76483274Y-112633274D03*
G04 #@! TD*
D16*
G04 #@! TO.C,C53*
X98592568Y-90478034D03*
X98592568Y-93428034D03*
G04 #@! TD*
D17*
G04 #@! TO.C,C75*
X89420971Y-104727831D03*
X89420971Y-102827831D03*
G04 #@! TD*
D18*
G04 #@! TO.C,U8*
X72721482Y-108221809D03*
X72721482Y-107571809D03*
X72721482Y-106921809D03*
X72721482Y-106271809D03*
X76946482Y-106271809D03*
X76946482Y-106921809D03*
X76946482Y-107571809D03*
X76946482Y-108221809D03*
G04 #@! TD*
D17*
G04 #@! TO.C,C77*
X72025991Y-104727831D03*
X72025991Y-102827831D03*
G04 #@! TD*
D19*
G04 #@! TO.C,C6*
X82845243Y-78192030D03*
X83524065Y-78870852D03*
G04 #@! TD*
D20*
G04 #@! TO.C,R7*
X97330000Y-76500000D03*
X96310000Y-76500000D03*
G04 #@! TD*
D21*
G04 #@! TO.C,R4*
X81000000Y-66945153D03*
X81000000Y-68770153D03*
G04 #@! TD*
D16*
G04 #@! TO.C,C42*
X85917722Y-90478034D03*
X85917722Y-93428034D03*
G04 #@! TD*
D22*
G04 #@! TO.C,C2*
X96318748Y-70874553D03*
X97278748Y-70874553D03*
G04 #@! TD*
D23*
G04 #@! TO.C,C8*
X87775533Y-85148626D03*
X87775533Y-84188626D03*
G04 #@! TD*
D20*
G04 #@! TO.C,R14*
X75510000Y-72800000D03*
X74490000Y-72800000D03*
G04 #@! TD*
D17*
G04 #@! TO.C,C73*
X94633237Y-104727831D03*
X94633237Y-102827831D03*
G04 #@! TD*
D24*
G04 #@! TO.C,C46*
X90297433Y-107420000D03*
X90297433Y-108380000D03*
G04 #@! TD*
G04 #@! TO.C,C32*
X79617463Y-107597418D03*
X79617463Y-108557418D03*
G04 #@! TD*
D17*
G04 #@! TO.C,C70*
X99612396Y-104727831D03*
X99612396Y-102827831D03*
G04 #@! TD*
D25*
G04 #@! TO.C,J4*
X90749959Y-76687650D03*
X89733959Y-71607650D03*
X91765959Y-71607650D03*
D26*
X90114959Y-75417650D03*
X91384959Y-75417650D03*
X90114959Y-74147650D03*
X91384959Y-74147650D03*
X90114959Y-72877650D03*
X91384959Y-72877650D03*
G04 #@! TD*
D17*
G04 #@! TO.C,C74*
X74048062Y-104727831D03*
X74048062Y-102827831D03*
G04 #@! TD*
D16*
G04 #@! TO.C,C63*
X83417722Y-90478034D03*
X83417722Y-93428034D03*
G04 #@! TD*
D24*
G04 #@! TO.C,C60*
X100157268Y-107267181D03*
X100157268Y-108227181D03*
G04 #@! TD*
D20*
G04 #@! TO.C,R15*
X81524141Y-72973479D03*
X80504141Y-72973479D03*
G04 #@! TD*
D27*
G04 #@! TO.C,R16*
X87792818Y-71458277D03*
X87792818Y-72478277D03*
G04 #@! TD*
D16*
G04 #@! TO.C,C28*
X70547582Y-90458505D03*
X70547582Y-93408505D03*
G04 #@! TD*
D28*
G04 #@! TO.C,U1*
X75891804Y-68861204D03*
X74621804Y-68861204D03*
X73351804Y-68861204D03*
X72081804Y-68861204D03*
X72081804Y-63911204D03*
X73351804Y-63911204D03*
X74621804Y-63911204D03*
X75891804Y-63911204D03*
G04 #@! TD*
D16*
G04 #@! TO.C,C54*
X91092568Y-90478034D03*
X91092568Y-93428034D03*
G04 #@! TD*
D23*
G04 #@! TO.C,C7*
X86802360Y-85154116D03*
X86802360Y-84194116D03*
G04 #@! TD*
D17*
G04 #@! TO.C,C72*
X84441812Y-104727831D03*
X84441812Y-102827831D03*
G04 #@! TD*
D29*
G04 #@! TO.C,R20*
X78615170Y-106279463D03*
X79635170Y-106279463D03*
G04 #@! TD*
D20*
G04 #@! TO.C,R17*
X81524141Y-71400000D03*
X80504141Y-71400000D03*
G04 #@! TD*
D30*
G04 #@! TO.C,C9*
X88982405Y-79413550D03*
X88022405Y-79413550D03*
G04 #@! TD*
D16*
G04 #@! TO.C,C29*
X73047582Y-90458505D03*
X73047582Y-93408505D03*
G04 #@! TD*
D31*
G04 #@! TO.C,TP6*
X94750000Y-86250000D03*
G04 #@! TD*
D22*
G04 #@! TO.C,C1*
X73464588Y-70605053D03*
X74424588Y-70605053D03*
G04 #@! TD*
D16*
G04 #@! TO.C,C30*
X75547582Y-90458505D03*
X75547582Y-93408505D03*
G04 #@! TD*
D32*
G04 #@! TO.C,R1*
X77600000Y-72912500D03*
X77600000Y-71087500D03*
G04 #@! TD*
D33*
G04 #@! TO.C,Y1*
X86376777Y-82378858D03*
X84821142Y-80823223D03*
X86023223Y-79621142D03*
X87578858Y-81176777D03*
G04 #@! TD*
D31*
G04 #@! TO.C,TP4*
X74250000Y-86250000D03*
G04 #@! TD*
D19*
G04 #@! TO.C,C12*
X82145303Y-78893812D03*
X82824125Y-79572634D03*
G04 #@! TD*
D17*
G04 #@! TO.C,C68*
X79027221Y-104727831D03*
X79027221Y-102827831D03*
G04 #@! TD*
D16*
G04 #@! TO.C,C57*
X96092568Y-90478034D03*
X96092568Y-93428034D03*
G04 #@! TD*
D31*
G04 #@! TO.C,TP3*
X99000000Y-86250000D03*
G04 #@! TD*
D24*
G04 #@! TO.C,C59*
X99084673Y-107261536D03*
X99084673Y-108221536D03*
G04 #@! TD*
D23*
G04 #@! TO.C,C15*
X84110674Y-83337865D03*
X84110674Y-82377865D03*
G04 #@! TD*
D30*
G04 #@! TO.C,C4*
X81756018Y-77793636D03*
X80796018Y-77793636D03*
G04 #@! TD*
D34*
G04 #@! TO.C,D1*
X96487500Y-80060000D03*
X96487500Y-78160000D03*
X98362500Y-79110000D03*
G04 #@! TD*
D16*
G04 #@! TO.C,C62*
X78047582Y-90458505D03*
X78047582Y-93408505D03*
G04 #@! TD*
D17*
G04 #@! TO.C,C71*
X77005150Y-104727831D03*
X77005150Y-102827831D03*
G04 #@! TD*
D18*
G04 #@! TO.C,U12*
X93306657Y-108221809D03*
X93306657Y-107571809D03*
X93306657Y-106921809D03*
X93306657Y-106271809D03*
X97531657Y-106271809D03*
X97531657Y-106921809D03*
X97531657Y-107571809D03*
X97531657Y-108221809D03*
G04 #@! TD*
D17*
G04 #@! TO.C,C78*
X82419741Y-104727831D03*
X82419741Y-102827831D03*
G04 #@! TD*
G04 #@! TO.C,C79*
X92611166Y-104727831D03*
X92611166Y-102827831D03*
G04 #@! TD*
D32*
G04 #@! TO.C,R5*
X89500000Y-68662500D03*
X89500000Y-66837500D03*
G04 #@! TD*
D35*
G04 #@! TO.C,D3*
X83042818Y-72968277D03*
X86042818Y-72968277D03*
X86042818Y-71468277D03*
X83042818Y-71468277D03*
G04 #@! TD*
D24*
G04 #@! TO.C,C19*
X85835660Y-84190920D03*
X85835660Y-85150920D03*
G04 #@! TD*
D36*
G04 #@! TO.C,U15*
X84495710Y-86998503D03*
X83845710Y-86998503D03*
X83195710Y-86998503D03*
X83195710Y-85098503D03*
X84495710Y-85098503D03*
G04 #@! TD*
D31*
G04 #@! TO.C,TP2*
X77500000Y-86250000D03*
G04 #@! TD*
D24*
G04 #@! TO.C,C45*
X89191386Y-107430375D03*
X89191386Y-108390375D03*
G04 #@! TD*
D29*
G04 #@! TO.C,R30*
X99135906Y-106273677D03*
X100155906Y-106273677D03*
G04 #@! TD*
D31*
G04 #@! TO.C,TP5*
X90750000Y-86250000D03*
G04 #@! TD*
D16*
G04 #@! TO.C,C55*
X93592568Y-90478034D03*
X93592568Y-93428034D03*
G04 #@! TD*
D30*
G04 #@! TO.C,C18*
X84026546Y-88119078D03*
X83066546Y-88119078D03*
G04 #@! TD*
D37*
G04 #@! TO.C,R11*
X79097294Y-80084878D03*
X79097294Y-79064878D03*
G04 #@! TD*
D17*
G04 #@! TO.C,C69*
X87398900Y-104727831D03*
X87398900Y-102827831D03*
G04 #@! TD*
D29*
G04 #@! TO.C,R25*
X88944481Y-106273677D03*
X89964481Y-106273677D03*
G04 #@! TD*
D16*
G04 #@! TO.C,C41*
X88417722Y-90478034D03*
X88417722Y-93428034D03*
G04 #@! TD*
G04 #@! TO.C,C43*
X80917722Y-90478034D03*
X80917722Y-93428034D03*
G04 #@! TD*
D38*
G04 #@! TO.C,R3*
X84633696Y-68750000D03*
X86458696Y-68750000D03*
G04 #@! TD*
D20*
G04 #@! TO.C,R8*
X97100717Y-81455004D03*
X96080717Y-81455004D03*
G04 #@! TD*
D17*
G04 #@! TO.C,C76*
X97590325Y-104727831D03*
X97590325Y-102827831D03*
G04 #@! TD*
D24*
G04 #@! TO.C,C31*
X78575892Y-107574272D03*
X78575892Y-108534272D03*
G04 #@! TD*
D31*
G04 #@! TO.C,TP1*
X71000000Y-86250000D03*
G04 #@! TD*
D22*
G04 #@! TO.C,C14*
X87037035Y-78257562D03*
X87997035Y-78257562D03*
G04 #@! TD*
D39*
G04 #@! TO.C,R6*
X86466407Y-66877152D03*
X84641407Y-66877152D03*
G04 #@! TD*
D18*
G04 #@! TO.C,U10*
X83115232Y-108221809D03*
X83115232Y-107571809D03*
X83115232Y-106921809D03*
X83115232Y-106271809D03*
X87340232Y-106271809D03*
X87340232Y-106921809D03*
X87340232Y-107571809D03*
X87340232Y-108221809D03*
G04 #@! TD*
D28*
G04 #@! TO.C,U2*
X98685872Y-69049438D03*
X97415872Y-69049438D03*
X96145872Y-69049438D03*
X94875872Y-69049438D03*
X94875872Y-64099438D03*
X96145872Y-64099438D03*
X97415872Y-64099438D03*
X98685872Y-64099438D03*
G04 #@! TD*
D40*
G04 #@! TO.C,D2*
X72975000Y-72800000D03*
X71400000Y-72800000D03*
G04 #@! TD*
G36*
X99343039Y-109469685D02*
G01*
X99388794Y-109522489D01*
X99400000Y-109574000D01*
X99400000Y-115326000D01*
X99380315Y-115393039D01*
X99327511Y-115438794D01*
X99276000Y-115450000D01*
X91724000Y-115450000D01*
X91656961Y-115430315D01*
X91611206Y-115377511D01*
X91600000Y-115326000D01*
X91600000Y-109574000D01*
X91619685Y-109506961D01*
X91672489Y-109461206D01*
X91724000Y-109450000D01*
X99276000Y-109450000D01*
X99343039Y-109469685D01*
G37*
G36*
X73443039Y-94419685D02*
G01*
X73488794Y-94472489D01*
X73500000Y-94524000D01*
X73500000Y-96776000D01*
X73480315Y-96843039D01*
X73427511Y-96888794D01*
X73376000Y-96900000D01*
X68924000Y-96900000D01*
X68856961Y-96880315D01*
X68811206Y-96827511D01*
X68800000Y-96776000D01*
X68800000Y-94524000D01*
X68819685Y-94456961D01*
X68872489Y-94411206D01*
X68924000Y-94400000D01*
X73376000Y-94400000D01*
X73443039Y-94419685D01*
G37*
G36*
X89143039Y-109469685D02*
G01*
X89188794Y-109522489D01*
X89200000Y-109574000D01*
X89200000Y-115376000D01*
X89180315Y-115443039D01*
X89127511Y-115488794D01*
X89076000Y-115500000D01*
X81424000Y-115500000D01*
X81356961Y-115480315D01*
X81311206Y-115427511D01*
X81300000Y-115376000D01*
X81300000Y-109574000D01*
X81319685Y-109506961D01*
X81372489Y-109461206D01*
X81424000Y-109450000D01*
X89076000Y-109450000D01*
X89143039Y-109469685D01*
G37*
G36*
X78643039Y-109469685D02*
G01*
X78688794Y-109522489D01*
X78700000Y-109574000D01*
X78700000Y-115376000D01*
X78680315Y-115443039D01*
X78627511Y-115488794D01*
X78576000Y-115500000D01*
X70924000Y-115500000D01*
X70856961Y-115480315D01*
X70811206Y-115427511D01*
X70800000Y-115376000D01*
X70800000Y-109574000D01*
X70819685Y-109506961D01*
X70872489Y-109461206D01*
X70924000Y-109450000D01*
X78576000Y-109450000D01*
X78643039Y-109469685D01*
G37*
G36*
X101193039Y-94467503D02*
G01*
X101238794Y-94520307D01*
X101250000Y-94571818D01*
X101250000Y-99556418D01*
X101230315Y-99623457D01*
X101177511Y-99669212D01*
X101126000Y-99680418D01*
X94374000Y-99680418D01*
X94306961Y-99660733D01*
X94261206Y-99607929D01*
X94250000Y-99556418D01*
X94250000Y-94571818D01*
X94269685Y-94504779D01*
X94322489Y-94459024D01*
X94374000Y-94447818D01*
X101126000Y-94447818D01*
X101193039Y-94467503D01*
G37*
M02*
