M48
; DRILL file {KiCad 9.0.2} date 2025-11-16T13:07:26+0100
; FORMAT={-:-/ absolute / metric / decimal}
; #@! TF.CreationDate,2025-11-16T13:07:26+01:00
; #@! TF.GenerationSoftware,Kicad,Pcbnew,9.0.2
; #@! TF.FileFunction,Plated,1,6,PTH
FMAT,2
METRIC
; #@! TA.AperFunction,Plated,PTH,ViaDrill
T1C0.160
; #@! TA.AperFunction,Plated,PTH,ComponentDrill
T2C0.200
; #@! TA.AperFunction,Plated,PTH,ComponentDrill
T3C0.400
; #@! TA.AperFunction,Plated,PTH,ComponentDrill
T4C0.600
; #@! TA.AperFunction,Plated,PTH,ComponentDrill
T5C2.200
%
G90
G05
T1
X69.75Y-87.5
X69.75Y-114.75
X69.8Y-72.4
X69.8Y-81.0
X69.8Y-83.6
X69.8Y-86.4
X69.8Y-108.2
X69.8Y-109.292
X69.8Y-110.383
X69.8Y-111.475
X69.8Y-112.567
X69.8Y-113.658
X70.2Y-67.0
X70.2Y-69.0
X70.213Y-102.331
X70.225Y-101.387
X70.4Y-104.787
X70.4Y-105.747
X70.427Y-106.752
X70.475Y-100.4
X70.5Y-89.025
X70.548Y-90.459
X70.652Y-79.034
X71.0Y-71.2
X71.0Y-80.0
X71.0Y-86.25
X71.32Y-99.8
X71.4Y-72.8
X71.65Y-109.71
X71.65Y-110.72
X71.65Y-111.73
X71.65Y-112.74
X71.65Y-113.75
X71.65Y-114.76
X72.0Y-65.8
X72.082Y-68.861
X72.132Y-67.123
X72.2Y-78.666
X72.2Y-85.2
X72.3Y-81.591
X72.5Y-100.0
X72.5Y-100.5
X72.5Y-101.0
X72.5Y-101.5
X72.5Y-102.0
X72.505Y-77.291
X73.0Y-89.025
X73.0Y-100.0
X73.0Y-100.5
X73.0Y-101.0
X73.0Y-101.5
X73.0Y-102.0
X73.048Y-90.459
X73.352Y-63.911
X73.4Y-87.4
X73.463Y-70.608
X73.5Y-104.728
X73.75Y-83.4
X73.764Y-75.465
X73.949Y-99.08
X74.25Y-86.25
X74.4Y-107.575
X74.425Y-70.605
X74.5Y-100.0
X74.5Y-100.5
X74.5Y-101.0
X74.5Y-101.5
X74.5Y-102.0
X74.622Y-63.911
X75.0Y-100.0
X75.0Y-100.5
X75.0Y-101.0
X75.0Y-101.5
X75.0Y-102.0
X75.214Y-83.364
X75.259Y-75.461
X75.5Y-89.025
X75.5Y-100.0
X75.5Y-100.5
X75.5Y-101.0
X75.5Y-101.5
X75.5Y-102.0
X75.537Y-72.797
X75.548Y-90.459
X75.892Y-63.911
X75.926Y-69.389
X76.0Y-65.8
X76.0Y-71.0
X76.0Y-100.0
X76.0Y-100.5
X76.0Y-101.0
X76.0Y-101.5
X76.0Y-102.0
X76.4Y-73.6
X76.5Y-100.0
X76.5Y-100.5
X76.5Y-101.0
X76.5Y-101.5
X76.5Y-102.0
X76.501Y-86.298
X76.505Y-77.291
X76.507Y-81.593
X76.959Y-108.236
X77.0Y-100.0
X77.0Y-100.5
X77.0Y-101.0
X77.0Y-101.5
X77.0Y-102.0
X77.5Y-100.0
X77.5Y-100.5
X77.5Y-101.0
X77.5Y-101.5
X77.5Y-102.0
X77.6Y-67.8
X77.6Y-72.912
X77.85Y-109.7
X77.85Y-110.71
X77.85Y-111.72
X77.85Y-112.73
X77.85Y-113.74
X77.85Y-114.75
X78.0Y-89.025
X78.0Y-100.0
X78.0Y-100.5
X78.0Y-101.0
X78.0Y-101.5
X78.0Y-102.0
X78.037Y-78.662
X78.048Y-90.459
X78.251Y-84.5
X78.5Y-100.0
X78.5Y-100.5
X78.5Y-101.0
X78.5Y-101.5
X78.5Y-102.0
X78.576Y-108.534
X78.6Y-82.6
X78.784Y-104.726
X78.8Y-85.4
X78.875Y-107.025
X78.885Y-81.615
X79.0Y-70.6
X79.0Y-101.0
X79.0Y-101.5
X79.063Y-80.8
X79.105Y-77.807
X79.2Y-66.8
X79.2Y-87.0
X79.617Y-108.557
X79.626Y-107.621
X79.783Y-73.182
X79.8Y-82.8
X79.8Y-85.4
X80.0Y-80.1
X80.0Y-109.6
X80.0Y-110.61
X80.0Y-111.62
X80.0Y-112.63
X80.0Y-113.64
X80.0Y-114.65
X80.117Y-79.066
X80.2Y-64.2
X80.4Y-103.8
X80.504Y-71.4
X80.579Y-81.31
X80.6Y-70.4
X80.603Y-102.331
X80.614Y-87.8
X80.614Y-101.371
X80.666Y-105.747
X80.788Y-80.401
X80.796Y-77.794
X80.85Y-83.45
X80.862Y-79.058
X80.894Y-89.025
X80.912Y-84.562
X80.918Y-90.478
X80.944Y-99.944
X81.0Y-66.945
X81.0Y-68.77
X81.125Y-85.625
X81.15Y-80.98
X81.725Y-87.2
X81.725Y-99.703
X81.967Y-75.502
X82.1Y-109.61
X82.1Y-110.62
X82.1Y-111.63
X82.1Y-112.64
X82.1Y-113.65
X82.1Y-114.66
X82.161Y-78.713
X82.381Y-77.794
X82.6Y-67.8
X82.894Y-100.0
X82.894Y-100.5
X82.894Y-101.0
X82.894Y-101.5
X82.894Y-102.0
X82.983Y-77.267
X83.0Y-69.8
X83.111Y-108.243
X83.164Y-79.246
X83.394Y-89.025
X83.394Y-100.0
X83.394Y-100.5
X83.394Y-101.0
X83.394Y-101.5
X83.394Y-102.0
X83.418Y-90.478
X83.7Y-75.05
X83.8Y-76.815
X83.894Y-104.728
X84.0Y-74.0
X84.4Y-65.2
X84.484Y-99.031
X84.5Y-107.565
X84.6Y-70.0
X84.6Y-71.8
X84.821Y-80.823
X84.894Y-100.0
X84.894Y-100.5
X84.894Y-101.0
X84.894Y-101.5
X84.894Y-102.0
X85.394Y-100.0
X85.394Y-100.5
X85.394Y-101.0
X85.394Y-101.5
X85.394Y-102.0
X85.725Y-76.2
X85.75Y-87.37
X85.843Y-84.187
X85.894Y-89.025
X85.894Y-100.0
X85.894Y-100.5
X85.894Y-101.0
X85.894Y-101.5
X85.894Y-102.0
X85.918Y-90.478
X86.394Y-100.0
X86.394Y-100.5
X86.394Y-101.0
X86.394Y-101.5
X86.394Y-102.0
X86.6Y-63.8
X86.8Y-70.0
X86.802Y-86.0
X86.822Y-84.205
X86.875Y-75.4
X86.894Y-100.0
X86.894Y-100.5
X86.894Y-101.0
X86.894Y-101.5
X86.894Y-102.0
X87.2Y-87.9
X87.353Y-108.236
X87.394Y-100.0
X87.394Y-100.5
X87.394Y-101.0
X87.394Y-101.5
X87.394Y-102.0
X87.579Y-81.177
X87.81Y-84.079
X87.894Y-100.0
X87.894Y-100.5
X87.894Y-101.0
X87.894Y-101.5
X87.894Y-102.0
X88.032Y-79.429
X88.2Y-67.8
X88.3Y-86.0
X88.394Y-89.025
X88.394Y-100.0
X88.394Y-100.5
X88.394Y-101.0
X88.394Y-101.5
X88.394Y-102.0
X88.418Y-90.478
X88.45Y-110.7
X88.45Y-111.71
X88.45Y-112.72
X88.45Y-113.73
X88.45Y-114.74
X88.8Y-73.6
X88.894Y-100.0
X88.894Y-100.5
X88.894Y-101.0
X88.894Y-101.5
X88.894Y-102.0
X89.0Y-75.0
X89.0Y-77.25
X89.2Y-107.4
X89.2Y-108.39
X89.394Y-101.0
X89.394Y-101.5
X89.397Y-109.533
X89.405Y-103.871
X89.5Y-66.837
X89.5Y-68.662
X89.6Y-86.6
X89.702Y-88.341
X89.9Y-79.37
X89.944Y-84.256
X89.971Y-83.54
X90.017Y-81.43
X90.22Y-84.878
X90.297Y-107.42
X90.297Y-108.38
X90.4Y-82.2
X90.4Y-109.55
X90.4Y-110.59
X90.4Y-111.63
X90.4Y-112.67
X90.4Y-113.71
X90.4Y-114.75
X90.6Y-103.8
X90.758Y-81.242
X90.8Y-63.8
X90.843Y-101.313
X90.843Y-102.273
X90.857Y-105.747
X91.0Y-65.6
X91.085Y-89.025
X91.093Y-90.478
X91.106Y-99.8
X92.0Y-86.25
X92.202Y-99.703
X92.25Y-75.012
X92.295Y-82.33
X92.4Y-81.0
X92.4Y-83.6
X92.5Y-109.66
X92.5Y-110.67
X92.5Y-111.68
X92.5Y-112.69
X92.5Y-113.7
X92.5Y-114.71
X92.715Y-79.36
X92.8Y-73.8
X93.085Y-100.0
X93.085Y-100.5
X93.085Y-101.0
X93.085Y-101.5
X93.085Y-102.0
X93.303Y-108.243
X93.4Y-68.2
X93.585Y-89.025
X93.585Y-100.0
X93.585Y-100.5
X93.585Y-101.0
X93.585Y-101.5
X93.585Y-102.0
X93.593Y-90.478
X93.6Y-87.0
X94.0Y-71.4
X94.085Y-104.728
X94.316Y-99.258
X94.714Y-107.58
X94.793Y-78.807
X94.876Y-69.049
X94.945Y-67.236
X95.085Y-100.0
X95.085Y-100.5
X95.085Y-101.0
X95.085Y-101.5
X95.085Y-102.0
X95.585Y-100.0
X95.585Y-100.5
X95.585Y-101.0
X95.585Y-101.5
X95.585Y-102.0
X95.65Y-107.85
X96.081Y-81.455
X96.085Y-89.025
X96.085Y-100.0
X96.085Y-100.5
X96.085Y-101.0
X96.085Y-101.5
X96.085Y-102.0
X96.093Y-90.478
X96.166Y-67.567
X96.2Y-86.8
X96.31Y-76.5
X96.33Y-71.144
X96.585Y-100.0
X96.585Y-100.5
X96.585Y-101.0
X96.585Y-101.5
X96.585Y-102.0
X96.6Y-74.2
X96.6Y-84.2
X97.085Y-100.0
X97.085Y-100.5
X97.085Y-101.0
X97.085Y-101.5
X97.085Y-102.0
X97.101Y-81.455
X97.303Y-71.126
X97.33Y-76.5
X97.4Y-85.8
X97.416Y-69.049
X97.416Y-67.567
X97.545Y-108.236
X97.585Y-100.0
X97.585Y-100.5
X97.585Y-101.0
X97.585Y-101.5
X97.585Y-102.0
X98.084Y-87.647
X98.085Y-100.0
X98.085Y-100.5
X98.085Y-101.0
X98.085Y-101.5
X98.085Y-102.0
X98.362Y-79.11
X98.585Y-89.025
X98.585Y-100.0
X98.585Y-100.5
X98.585Y-101.0
X98.585Y-101.5
X98.585Y-102.0
X98.593Y-90.478
X98.686Y-64.099
X98.686Y-69.049
X98.75Y-109.66
X98.75Y-110.67
X98.75Y-111.68
X98.75Y-112.69
X98.75Y-113.7
X98.75Y-114.71
X99.0Y-86.25
X99.085Y-108.222
X99.085Y-100.0
X99.085Y-100.5
X99.085Y-101.0
X99.085Y-101.5
X99.085Y-102.0
X99.585Y-101.0
X99.585Y-101.5
X99.6Y-81.2
X99.612Y-104.728
X99.8Y-76.6
X100.157Y-106.275
X100.175Y-108.223
X100.4Y-66.8
X100.4Y-69.4
X100.4Y-71.4
X100.4Y-73.2
X100.4Y-75.6
X100.4Y-77.8
X100.4Y-80.0
X100.4Y-84.8
X100.4Y-86.8
X100.65Y-109.4
X100.65Y-110.48
X100.65Y-111.56
X100.65Y-112.64
X100.65Y-113.72
X100.65Y-114.8
T2
X73.555Y-78.496
X73.555Y-79.446
X73.555Y-80.396
X74.505Y-77.546
X74.505Y-78.496
X74.505Y-79.446
X74.505Y-80.396
X74.505Y-81.346
X75.455Y-78.496
X75.455Y-79.446
X75.455Y-80.396
T3
X73.183Y-112.633
X73.667Y-111.467
X73.667Y-113.8
X74.833Y-110.983
X74.833Y-114.283
X76.0Y-111.467
X76.0Y-113.8
X76.483Y-112.633
X83.583Y-112.358
X84.067Y-111.192
X84.067Y-113.525
X85.233Y-110.708
X85.233Y-114.008
X86.4Y-111.192
X86.4Y-113.525
X86.883Y-112.358
X93.883Y-112.633
X94.367Y-111.467
X94.367Y-113.8
X95.533Y-110.983
X95.533Y-114.283
X96.7Y-111.467
X96.7Y-113.8
X97.183Y-112.633
T5
X74.833Y-112.633
X85.233Y-112.358
X95.533Y-112.633
T4
X93.75Y-74.79G85X94.85Y-74.79
G05
X93.75Y-83.43G85X94.85Y-83.43
G05
X98.1Y-74.79G85X98.9Y-74.79
G05
X98.1Y-83.43G85X98.9Y-83.43
G05
M30
