%TF.GenerationSoftware,KiCad,Pcbnew,9.0.2*%
%TF.CreationDate,2025-11-16T13:07:26+01:00*%
%TF.ProjectId,Flying_FOCer,466c7969-6e67-45f4-964f-4365722e6b69,rev?*%
%TF.SameCoordinates,Original*%
%TF.FileFunction,Drillmap*%
%TF.FilePolarity,Positive*%
%FSLAX45Y45*%
G04 Gerber Fmt 4.5, Leading zero omitted, Abs format (unit mm)*
G04 Created by KiCad (PCBNEW 9.0.2) date 2025-11-16 13:07:26*
%MOMM*%
%LPD*%
G01*
G04 APERTURE LIST*
%ADD10C,0.050000*%
%ADD11C,0.200000*%
%ADD12C,0.100000*%
G04 APERTURE END LIST*
D10*
X6878000Y-6205000D02*
X10153000Y-6205000D01*
X10153000Y-11550000D01*
X6878000Y-11550000D01*
X6878000Y-6205000D01*
D11*
D12*
X9449500Y-7589500D02*
X9514500Y-7654500D01*
X9514500Y-7589500D02*
X9449500Y-7654500D01*
X9449500Y-8167500D02*
X9514500Y-8232500D01*
X9514500Y-8167500D02*
X9449500Y-8232500D01*
X9022926Y-7160765D02*
G75*
G02*
X8923866Y-7160765I-49530J0D01*
G01*
X8923866Y-7160765D02*
G75*
G02*
X9022926Y-7160765I49530J0D01*
G01*
X9124526Y-7668765D02*
G75*
G02*
X9025466Y-7668765I-49530J0D01*
G01*
X9025466Y-7668765D02*
G75*
G02*
X9124526Y-7668765I49530J0D01*
G01*
X9226126Y-7160765D02*
G75*
G02*
X9127066Y-7160765I-49530J0D01*
G01*
X9127066Y-7160765D02*
G75*
G02*
X9226126Y-7160765I49530J0D01*
G01*
D11*
X7136277Y-11863984D02*
X7136277Y-11663984D01*
X7136277Y-11663984D02*
X7183896Y-11663984D01*
X7183896Y-11663984D02*
X7212467Y-11673508D01*
X7212467Y-11673508D02*
X7231515Y-11692555D01*
X7231515Y-11692555D02*
X7241039Y-11711603D01*
X7241039Y-11711603D02*
X7250562Y-11749698D01*
X7250562Y-11749698D02*
X7250562Y-11778269D01*
X7250562Y-11778269D02*
X7241039Y-11816365D01*
X7241039Y-11816365D02*
X7231515Y-11835412D01*
X7231515Y-11835412D02*
X7212467Y-11854460D01*
X7212467Y-11854460D02*
X7183896Y-11863984D01*
X7183896Y-11863984D02*
X7136277Y-11863984D01*
X7336277Y-11863984D02*
X7336277Y-11730650D01*
X7336277Y-11768746D02*
X7345801Y-11749698D01*
X7345801Y-11749698D02*
X7355324Y-11740174D01*
X7355324Y-11740174D02*
X7374372Y-11730650D01*
X7374372Y-11730650D02*
X7393420Y-11730650D01*
X7460086Y-11863984D02*
X7460086Y-11730650D01*
X7460086Y-11663984D02*
X7450562Y-11673508D01*
X7450562Y-11673508D02*
X7460086Y-11683031D01*
X7460086Y-11683031D02*
X7469610Y-11673508D01*
X7469610Y-11673508D02*
X7460086Y-11663984D01*
X7460086Y-11663984D02*
X7460086Y-11683031D01*
X7583896Y-11863984D02*
X7564848Y-11854460D01*
X7564848Y-11854460D02*
X7555324Y-11835412D01*
X7555324Y-11835412D02*
X7555324Y-11663984D01*
X7688658Y-11863984D02*
X7669610Y-11854460D01*
X7669610Y-11854460D02*
X7660086Y-11835412D01*
X7660086Y-11835412D02*
X7660086Y-11663984D01*
X7917229Y-11863984D02*
X7917229Y-11663984D01*
X7917229Y-11663984D02*
X7983896Y-11806841D01*
X7983896Y-11806841D02*
X8050562Y-11663984D01*
X8050562Y-11663984D02*
X8050562Y-11863984D01*
X8231515Y-11863984D02*
X8231515Y-11759222D01*
X8231515Y-11759222D02*
X8221991Y-11740174D01*
X8221991Y-11740174D02*
X8202943Y-11730650D01*
X8202943Y-11730650D02*
X8164848Y-11730650D01*
X8164848Y-11730650D02*
X8145801Y-11740174D01*
X8231515Y-11854460D02*
X8212467Y-11863984D01*
X8212467Y-11863984D02*
X8164848Y-11863984D01*
X8164848Y-11863984D02*
X8145801Y-11854460D01*
X8145801Y-11854460D02*
X8136277Y-11835412D01*
X8136277Y-11835412D02*
X8136277Y-11816365D01*
X8136277Y-11816365D02*
X8145801Y-11797317D01*
X8145801Y-11797317D02*
X8164848Y-11787793D01*
X8164848Y-11787793D02*
X8212467Y-11787793D01*
X8212467Y-11787793D02*
X8231515Y-11778269D01*
X8326753Y-11730650D02*
X8326753Y-11930650D01*
X8326753Y-11740174D02*
X8345801Y-11730650D01*
X8345801Y-11730650D02*
X8383896Y-11730650D01*
X8383896Y-11730650D02*
X8402944Y-11740174D01*
X8402944Y-11740174D02*
X8412467Y-11749698D01*
X8412467Y-11749698D02*
X8421991Y-11768746D01*
X8421991Y-11768746D02*
X8421991Y-11825888D01*
X8421991Y-11825888D02*
X8412467Y-11844936D01*
X8412467Y-11844936D02*
X8402944Y-11854460D01*
X8402944Y-11854460D02*
X8383896Y-11863984D01*
X8383896Y-11863984D02*
X8345801Y-11863984D01*
X8345801Y-11863984D02*
X8326753Y-11854460D01*
X8507705Y-11844936D02*
X8517229Y-11854460D01*
X8517229Y-11854460D02*
X8507705Y-11863984D01*
X8507705Y-11863984D02*
X8498182Y-11854460D01*
X8498182Y-11854460D02*
X8507705Y-11844936D01*
X8507705Y-11844936D02*
X8507705Y-11863984D01*
X8507705Y-11740174D02*
X8517229Y-11749698D01*
X8517229Y-11749698D02*
X8507705Y-11759222D01*
X8507705Y-11759222D02*
X8498182Y-11749698D01*
X8498182Y-11749698D02*
X8507705Y-11740174D01*
X8507705Y-11740174D02*
X8507705Y-11759222D01*
D12*
X6810500Y-12160000D02*
X6875500Y-12225000D01*
X6875500Y-12160000D02*
X6810500Y-12225000D01*
D11*
X7174372Y-12083984D02*
X7193420Y-12083984D01*
X7193420Y-12083984D02*
X7212467Y-12093508D01*
X7212467Y-12093508D02*
X7221991Y-12103031D01*
X7221991Y-12103031D02*
X7231515Y-12122079D01*
X7231515Y-12122079D02*
X7241039Y-12160174D01*
X7241039Y-12160174D02*
X7241039Y-12207793D01*
X7241039Y-12207793D02*
X7231515Y-12245888D01*
X7231515Y-12245888D02*
X7221991Y-12264936D01*
X7221991Y-12264936D02*
X7212467Y-12274460D01*
X7212467Y-12274460D02*
X7193420Y-12283984D01*
X7193420Y-12283984D02*
X7174372Y-12283984D01*
X7174372Y-12283984D02*
X7155324Y-12274460D01*
X7155324Y-12274460D02*
X7145801Y-12264936D01*
X7145801Y-12264936D02*
X7136277Y-12245888D01*
X7136277Y-12245888D02*
X7126753Y-12207793D01*
X7126753Y-12207793D02*
X7126753Y-12160174D01*
X7126753Y-12160174D02*
X7136277Y-12122079D01*
X7136277Y-12122079D02*
X7145801Y-12103031D01*
X7145801Y-12103031D02*
X7155324Y-12093508D01*
X7155324Y-12093508D02*
X7174372Y-12083984D01*
X7326753Y-12264936D02*
X7336277Y-12274460D01*
X7336277Y-12274460D02*
X7326753Y-12283984D01*
X7326753Y-12283984D02*
X7317229Y-12274460D01*
X7317229Y-12274460D02*
X7326753Y-12264936D01*
X7326753Y-12264936D02*
X7326753Y-12283984D01*
X7507705Y-12083984D02*
X7469610Y-12083984D01*
X7469610Y-12083984D02*
X7450562Y-12093508D01*
X7450562Y-12093508D02*
X7441039Y-12103031D01*
X7441039Y-12103031D02*
X7421991Y-12131603D01*
X7421991Y-12131603D02*
X7412467Y-12169698D01*
X7412467Y-12169698D02*
X7412467Y-12245888D01*
X7412467Y-12245888D02*
X7421991Y-12264936D01*
X7421991Y-12264936D02*
X7431515Y-12274460D01*
X7431515Y-12274460D02*
X7450562Y-12283984D01*
X7450562Y-12283984D02*
X7488658Y-12283984D01*
X7488658Y-12283984D02*
X7507705Y-12274460D01*
X7507705Y-12274460D02*
X7517229Y-12264936D01*
X7517229Y-12264936D02*
X7526753Y-12245888D01*
X7526753Y-12245888D02*
X7526753Y-12198269D01*
X7526753Y-12198269D02*
X7517229Y-12179222D01*
X7517229Y-12179222D02*
X7507705Y-12169698D01*
X7507705Y-12169698D02*
X7488658Y-12160174D01*
X7488658Y-12160174D02*
X7450562Y-12160174D01*
X7450562Y-12160174D02*
X7431515Y-12169698D01*
X7431515Y-12169698D02*
X7421991Y-12179222D01*
X7421991Y-12179222D02*
X7412467Y-12198269D01*
X7707705Y-12083984D02*
X7612467Y-12083984D01*
X7612467Y-12083984D02*
X7602943Y-12179222D01*
X7602943Y-12179222D02*
X7612467Y-12169698D01*
X7612467Y-12169698D02*
X7631515Y-12160174D01*
X7631515Y-12160174D02*
X7679134Y-12160174D01*
X7679134Y-12160174D02*
X7698182Y-12169698D01*
X7698182Y-12169698D02*
X7707705Y-12179222D01*
X7707705Y-12179222D02*
X7717229Y-12198269D01*
X7717229Y-12198269D02*
X7717229Y-12245888D01*
X7717229Y-12245888D02*
X7707705Y-12264936D01*
X7707705Y-12264936D02*
X7698182Y-12274460D01*
X7698182Y-12274460D02*
X7679134Y-12283984D01*
X7679134Y-12283984D02*
X7631515Y-12283984D01*
X7631515Y-12283984D02*
X7612467Y-12274460D01*
X7612467Y-12274460D02*
X7602943Y-12264936D01*
X7841039Y-12083984D02*
X7860086Y-12083984D01*
X7860086Y-12083984D02*
X7879134Y-12093508D01*
X7879134Y-12093508D02*
X7888658Y-12103031D01*
X7888658Y-12103031D02*
X7898182Y-12122079D01*
X7898182Y-12122079D02*
X7907705Y-12160174D01*
X7907705Y-12160174D02*
X7907705Y-12207793D01*
X7907705Y-12207793D02*
X7898182Y-12245888D01*
X7898182Y-12245888D02*
X7888658Y-12264936D01*
X7888658Y-12264936D02*
X7879134Y-12274460D01*
X7879134Y-12274460D02*
X7860086Y-12283984D01*
X7860086Y-12283984D02*
X7841039Y-12283984D01*
X7841039Y-12283984D02*
X7821991Y-12274460D01*
X7821991Y-12274460D02*
X7812467Y-12264936D01*
X7812467Y-12264936D02*
X7802943Y-12245888D01*
X7802943Y-12245888D02*
X7793420Y-12207793D01*
X7793420Y-12207793D02*
X7793420Y-12160174D01*
X7793420Y-12160174D02*
X7802943Y-12122079D01*
X7802943Y-12122079D02*
X7812467Y-12103031D01*
X7812467Y-12103031D02*
X7821991Y-12093508D01*
X7821991Y-12093508D02*
X7841039Y-12083984D01*
X7993420Y-12283984D02*
X7993420Y-12150650D01*
X7993420Y-12169698D02*
X8002943Y-12160174D01*
X8002943Y-12160174D02*
X8021991Y-12150650D01*
X8021991Y-12150650D02*
X8050563Y-12150650D01*
X8050563Y-12150650D02*
X8069610Y-12160174D01*
X8069610Y-12160174D02*
X8079134Y-12179222D01*
X8079134Y-12179222D02*
X8079134Y-12283984D01*
X8079134Y-12179222D02*
X8088658Y-12160174D01*
X8088658Y-12160174D02*
X8107705Y-12150650D01*
X8107705Y-12150650D02*
X8136277Y-12150650D01*
X8136277Y-12150650D02*
X8155324Y-12160174D01*
X8155324Y-12160174D02*
X8164848Y-12179222D01*
X8164848Y-12179222D02*
X8164848Y-12283984D01*
X8260086Y-12283984D02*
X8260086Y-12150650D01*
X8260086Y-12169698D02*
X8269610Y-12160174D01*
X8269610Y-12160174D02*
X8288658Y-12150650D01*
X8288658Y-12150650D02*
X8317229Y-12150650D01*
X8317229Y-12150650D02*
X8336277Y-12160174D01*
X8336277Y-12160174D02*
X8345801Y-12179222D01*
X8345801Y-12179222D02*
X8345801Y-12283984D01*
X8345801Y-12179222D02*
X8355324Y-12160174D01*
X8355324Y-12160174D02*
X8374372Y-12150650D01*
X8374372Y-12150650D02*
X8402944Y-12150650D01*
X8402944Y-12150650D02*
X8421991Y-12160174D01*
X8421991Y-12160174D02*
X8431515Y-12179222D01*
X8431515Y-12179222D02*
X8431515Y-12283984D01*
X8821991Y-12074460D02*
X8650563Y-12331603D01*
X9079134Y-12083984D02*
X9098182Y-12083984D01*
X9098182Y-12083984D02*
X9117229Y-12093508D01*
X9117229Y-12093508D02*
X9126753Y-12103031D01*
X9126753Y-12103031D02*
X9136277Y-12122079D01*
X9136277Y-12122079D02*
X9145801Y-12160174D01*
X9145801Y-12160174D02*
X9145801Y-12207793D01*
X9145801Y-12207793D02*
X9136277Y-12245888D01*
X9136277Y-12245888D02*
X9126753Y-12264936D01*
X9126753Y-12264936D02*
X9117229Y-12274460D01*
X9117229Y-12274460D02*
X9098182Y-12283984D01*
X9098182Y-12283984D02*
X9079134Y-12283984D01*
X9079134Y-12283984D02*
X9060087Y-12274460D01*
X9060087Y-12274460D02*
X9050563Y-12264936D01*
X9050563Y-12264936D02*
X9041039Y-12245888D01*
X9041039Y-12245888D02*
X9031515Y-12207793D01*
X9031515Y-12207793D02*
X9031515Y-12160174D01*
X9031515Y-12160174D02*
X9041039Y-12122079D01*
X9041039Y-12122079D02*
X9050563Y-12103031D01*
X9050563Y-12103031D02*
X9060087Y-12093508D01*
X9060087Y-12093508D02*
X9079134Y-12083984D01*
X9231515Y-12264936D02*
X9241039Y-12274460D01*
X9241039Y-12274460D02*
X9231515Y-12283984D01*
X9231515Y-12283984D02*
X9221991Y-12274460D01*
X9221991Y-12274460D02*
X9231515Y-12264936D01*
X9231515Y-12264936D02*
X9231515Y-12283984D01*
X9364848Y-12083984D02*
X9383896Y-12083984D01*
X9383896Y-12083984D02*
X9402944Y-12093508D01*
X9402944Y-12093508D02*
X9412468Y-12103031D01*
X9412468Y-12103031D02*
X9421991Y-12122079D01*
X9421991Y-12122079D02*
X9431515Y-12160174D01*
X9431515Y-12160174D02*
X9431515Y-12207793D01*
X9431515Y-12207793D02*
X9421991Y-12245888D01*
X9421991Y-12245888D02*
X9412468Y-12264936D01*
X9412468Y-12264936D02*
X9402944Y-12274460D01*
X9402944Y-12274460D02*
X9383896Y-12283984D01*
X9383896Y-12283984D02*
X9364848Y-12283984D01*
X9364848Y-12283984D02*
X9345801Y-12274460D01*
X9345801Y-12274460D02*
X9336277Y-12264936D01*
X9336277Y-12264936D02*
X9326753Y-12245888D01*
X9326753Y-12245888D02*
X9317229Y-12207793D01*
X9317229Y-12207793D02*
X9317229Y-12160174D01*
X9317229Y-12160174D02*
X9326753Y-12122079D01*
X9326753Y-12122079D02*
X9336277Y-12103031D01*
X9336277Y-12103031D02*
X9345801Y-12093508D01*
X9345801Y-12093508D02*
X9364848Y-12083984D01*
X9507706Y-12103031D02*
X9517229Y-12093508D01*
X9517229Y-12093508D02*
X9536277Y-12083984D01*
X9536277Y-12083984D02*
X9583896Y-12083984D01*
X9583896Y-12083984D02*
X9602944Y-12093508D01*
X9602944Y-12093508D02*
X9612468Y-12103031D01*
X9612468Y-12103031D02*
X9621991Y-12122079D01*
X9621991Y-12122079D02*
X9621991Y-12141127D01*
X9621991Y-12141127D02*
X9612468Y-12169698D01*
X9612468Y-12169698D02*
X9498182Y-12283984D01*
X9498182Y-12283984D02*
X9621991Y-12283984D01*
X9802944Y-12083984D02*
X9707706Y-12083984D01*
X9707706Y-12083984D02*
X9698182Y-12179222D01*
X9698182Y-12179222D02*
X9707706Y-12169698D01*
X9707706Y-12169698D02*
X9726753Y-12160174D01*
X9726753Y-12160174D02*
X9774372Y-12160174D01*
X9774372Y-12160174D02*
X9793420Y-12169698D01*
X9793420Y-12169698D02*
X9802944Y-12179222D01*
X9802944Y-12179222D02*
X9812468Y-12198269D01*
X9812468Y-12198269D02*
X9812468Y-12245888D01*
X9812468Y-12245888D02*
X9802944Y-12264936D01*
X9802944Y-12264936D02*
X9793420Y-12274460D01*
X9793420Y-12274460D02*
X9774372Y-12283984D01*
X9774372Y-12283984D02*
X9726753Y-12283984D01*
X9726753Y-12283984D02*
X9707706Y-12274460D01*
X9707706Y-12274460D02*
X9698182Y-12264936D01*
X9983896Y-12083984D02*
X9945801Y-12083984D01*
X9945801Y-12083984D02*
X9926753Y-12093508D01*
X9926753Y-12093508D02*
X9917229Y-12103031D01*
X9917229Y-12103031D02*
X9898182Y-12131603D01*
X9898182Y-12131603D02*
X9888658Y-12169698D01*
X9888658Y-12169698D02*
X9888658Y-12245888D01*
X9888658Y-12245888D02*
X9898182Y-12264936D01*
X9898182Y-12264936D02*
X9907706Y-12274460D01*
X9907706Y-12274460D02*
X9926753Y-12283984D01*
X9926753Y-12283984D02*
X9964849Y-12283984D01*
X9964849Y-12283984D02*
X9983896Y-12274460D01*
X9983896Y-12274460D02*
X9993420Y-12264936D01*
X9993420Y-12264936D02*
X10002944Y-12245888D01*
X10002944Y-12245888D02*
X10002944Y-12198269D01*
X10002944Y-12198269D02*
X9993420Y-12179222D01*
X9993420Y-12179222D02*
X9983896Y-12169698D01*
X9983896Y-12169698D02*
X9964849Y-12160174D01*
X9964849Y-12160174D02*
X9926753Y-12160174D01*
X9926753Y-12160174D02*
X9907706Y-12169698D01*
X9907706Y-12169698D02*
X9898182Y-12179222D01*
X9898182Y-12179222D02*
X9888658Y-12198269D01*
X10079134Y-12083984D02*
X10079134Y-12122079D01*
X10155325Y-12083984D02*
X10155325Y-12122079D01*
X10450563Y-12360174D02*
X10441039Y-12350650D01*
X10441039Y-12350650D02*
X10421991Y-12322079D01*
X10421991Y-12322079D02*
X10412468Y-12303031D01*
X10412468Y-12303031D02*
X10402944Y-12274460D01*
X10402944Y-12274460D02*
X10393420Y-12226841D01*
X10393420Y-12226841D02*
X10393420Y-12188746D01*
X10393420Y-12188746D02*
X10402944Y-12141127D01*
X10402944Y-12141127D02*
X10412468Y-12112555D01*
X10412468Y-12112555D02*
X10421991Y-12093508D01*
X10421991Y-12093508D02*
X10441039Y-12064936D01*
X10441039Y-12064936D02*
X10450563Y-12055412D01*
X10517230Y-12103031D02*
X10526753Y-12093508D01*
X10526753Y-12093508D02*
X10545801Y-12083984D01*
X10545801Y-12083984D02*
X10593420Y-12083984D01*
X10593420Y-12083984D02*
X10612468Y-12093508D01*
X10612468Y-12093508D02*
X10621991Y-12103031D01*
X10621991Y-12103031D02*
X10631515Y-12122079D01*
X10631515Y-12122079D02*
X10631515Y-12141127D01*
X10631515Y-12141127D02*
X10621991Y-12169698D01*
X10621991Y-12169698D02*
X10507706Y-12283984D01*
X10507706Y-12283984D02*
X10631515Y-12283984D01*
X10869611Y-12283984D02*
X10869611Y-12083984D01*
X10955325Y-12283984D02*
X10955325Y-12179222D01*
X10955325Y-12179222D02*
X10945801Y-12160174D01*
X10945801Y-12160174D02*
X10926753Y-12150650D01*
X10926753Y-12150650D02*
X10898182Y-12150650D01*
X10898182Y-12150650D02*
X10879134Y-12160174D01*
X10879134Y-12160174D02*
X10869611Y-12169698D01*
X11079134Y-12283984D02*
X11060087Y-12274460D01*
X11060087Y-12274460D02*
X11050563Y-12264936D01*
X11050563Y-12264936D02*
X11041039Y-12245888D01*
X11041039Y-12245888D02*
X11041039Y-12188746D01*
X11041039Y-12188746D02*
X11050563Y-12169698D01*
X11050563Y-12169698D02*
X11060087Y-12160174D01*
X11060087Y-12160174D02*
X11079134Y-12150650D01*
X11079134Y-12150650D02*
X11107706Y-12150650D01*
X11107706Y-12150650D02*
X11126753Y-12160174D01*
X11126753Y-12160174D02*
X11136277Y-12169698D01*
X11136277Y-12169698D02*
X11145801Y-12188746D01*
X11145801Y-12188746D02*
X11145801Y-12245888D01*
X11145801Y-12245888D02*
X11136277Y-12264936D01*
X11136277Y-12264936D02*
X11126753Y-12274460D01*
X11126753Y-12274460D02*
X11107706Y-12283984D01*
X11107706Y-12283984D02*
X11079134Y-12283984D01*
X11260087Y-12283984D02*
X11241039Y-12274460D01*
X11241039Y-12274460D02*
X11231515Y-12255412D01*
X11231515Y-12255412D02*
X11231515Y-12083984D01*
X11412468Y-12274460D02*
X11393420Y-12283984D01*
X11393420Y-12283984D02*
X11355325Y-12283984D01*
X11355325Y-12283984D02*
X11336277Y-12274460D01*
X11336277Y-12274460D02*
X11326753Y-12255412D01*
X11326753Y-12255412D02*
X11326753Y-12179222D01*
X11326753Y-12179222D02*
X11336277Y-12160174D01*
X11336277Y-12160174D02*
X11355325Y-12150650D01*
X11355325Y-12150650D02*
X11393420Y-12150650D01*
X11393420Y-12150650D02*
X11412468Y-12160174D01*
X11412468Y-12160174D02*
X11421991Y-12179222D01*
X11421991Y-12179222D02*
X11421991Y-12198269D01*
X11421991Y-12198269D02*
X11326753Y-12217317D01*
X11498182Y-12274460D02*
X11517230Y-12283984D01*
X11517230Y-12283984D02*
X11555325Y-12283984D01*
X11555325Y-12283984D02*
X11574372Y-12274460D01*
X11574372Y-12274460D02*
X11583896Y-12255412D01*
X11583896Y-12255412D02*
X11583896Y-12245888D01*
X11583896Y-12245888D02*
X11574372Y-12226841D01*
X11574372Y-12226841D02*
X11555325Y-12217317D01*
X11555325Y-12217317D02*
X11526753Y-12217317D01*
X11526753Y-12217317D02*
X11507706Y-12207793D01*
X11507706Y-12207793D02*
X11498182Y-12188746D01*
X11498182Y-12188746D02*
X11498182Y-12179222D01*
X11498182Y-12179222D02*
X11507706Y-12160174D01*
X11507706Y-12160174D02*
X11526753Y-12150650D01*
X11526753Y-12150650D02*
X11555325Y-12150650D01*
X11555325Y-12150650D02*
X11574372Y-12160174D01*
X11650563Y-12360174D02*
X11660087Y-12350650D01*
X11660087Y-12350650D02*
X11679134Y-12322079D01*
X11679134Y-12322079D02*
X11688658Y-12303031D01*
X11688658Y-12303031D02*
X11698182Y-12274460D01*
X11698182Y-12274460D02*
X11707706Y-12226841D01*
X11707706Y-12226841D02*
X11707706Y-12188746D01*
X11707706Y-12188746D02*
X11698182Y-12141127D01*
X11698182Y-12141127D02*
X11688658Y-12112555D01*
X11688658Y-12112555D02*
X11679134Y-12093508D01*
X11679134Y-12093508D02*
X11660087Y-12064936D01*
X11660087Y-12064936D02*
X11650563Y-12055412D01*
X12012468Y-12360174D02*
X12002944Y-12350650D01*
X12002944Y-12350650D02*
X11983896Y-12322079D01*
X11983896Y-12322079D02*
X11974372Y-12303031D01*
X11974372Y-12303031D02*
X11964849Y-12274460D01*
X11964849Y-12274460D02*
X11955325Y-12226841D01*
X11955325Y-12226841D02*
X11955325Y-12188746D01*
X11955325Y-12188746D02*
X11964849Y-12141127D01*
X11964849Y-12141127D02*
X11974372Y-12112555D01*
X11974372Y-12112555D02*
X11983896Y-12093508D01*
X11983896Y-12093508D02*
X12002944Y-12064936D01*
X12002944Y-12064936D02*
X12012468Y-12055412D01*
X12088658Y-12150650D02*
X12088658Y-12283984D01*
X12088658Y-12169698D02*
X12098182Y-12160174D01*
X12098182Y-12160174D02*
X12117230Y-12150650D01*
X12117230Y-12150650D02*
X12145801Y-12150650D01*
X12145801Y-12150650D02*
X12164849Y-12160174D01*
X12164849Y-12160174D02*
X12174372Y-12179222D01*
X12174372Y-12179222D02*
X12174372Y-12283984D01*
X12298182Y-12283984D02*
X12279134Y-12274460D01*
X12279134Y-12274460D02*
X12269611Y-12264936D01*
X12269611Y-12264936D02*
X12260087Y-12245888D01*
X12260087Y-12245888D02*
X12260087Y-12188746D01*
X12260087Y-12188746D02*
X12269611Y-12169698D01*
X12269611Y-12169698D02*
X12279134Y-12160174D01*
X12279134Y-12160174D02*
X12298182Y-12150650D01*
X12298182Y-12150650D02*
X12326753Y-12150650D01*
X12326753Y-12150650D02*
X12345801Y-12160174D01*
X12345801Y-12160174D02*
X12355325Y-12169698D01*
X12355325Y-12169698D02*
X12364849Y-12188746D01*
X12364849Y-12188746D02*
X12364849Y-12245888D01*
X12364849Y-12245888D02*
X12355325Y-12264936D01*
X12355325Y-12264936D02*
X12345801Y-12274460D01*
X12345801Y-12274460D02*
X12326753Y-12283984D01*
X12326753Y-12283984D02*
X12298182Y-12283984D01*
X12421992Y-12150650D02*
X12498182Y-12150650D01*
X12450563Y-12083984D02*
X12450563Y-12255412D01*
X12450563Y-12255412D02*
X12460087Y-12274460D01*
X12460087Y-12274460D02*
X12479134Y-12283984D01*
X12479134Y-12283984D02*
X12498182Y-12283984D01*
X12717230Y-12150650D02*
X12717230Y-12350650D01*
X12717230Y-12160174D02*
X12736277Y-12150650D01*
X12736277Y-12150650D02*
X12774373Y-12150650D01*
X12774373Y-12150650D02*
X12793420Y-12160174D01*
X12793420Y-12160174D02*
X12802944Y-12169698D01*
X12802944Y-12169698D02*
X12812468Y-12188746D01*
X12812468Y-12188746D02*
X12812468Y-12245888D01*
X12812468Y-12245888D02*
X12802944Y-12264936D01*
X12802944Y-12264936D02*
X12793420Y-12274460D01*
X12793420Y-12274460D02*
X12774373Y-12283984D01*
X12774373Y-12283984D02*
X12736277Y-12283984D01*
X12736277Y-12283984D02*
X12717230Y-12274460D01*
X12926753Y-12283984D02*
X12907706Y-12274460D01*
X12907706Y-12274460D02*
X12898182Y-12255412D01*
X12898182Y-12255412D02*
X12898182Y-12083984D01*
X13088658Y-12283984D02*
X13088658Y-12179222D01*
X13088658Y-12179222D02*
X13079134Y-12160174D01*
X13079134Y-12160174D02*
X13060087Y-12150650D01*
X13060087Y-12150650D02*
X13021992Y-12150650D01*
X13021992Y-12150650D02*
X13002944Y-12160174D01*
X13088658Y-12274460D02*
X13069611Y-12283984D01*
X13069611Y-12283984D02*
X13021992Y-12283984D01*
X13021992Y-12283984D02*
X13002944Y-12274460D01*
X13002944Y-12274460D02*
X12993420Y-12255412D01*
X12993420Y-12255412D02*
X12993420Y-12236365D01*
X12993420Y-12236365D02*
X13002944Y-12217317D01*
X13002944Y-12217317D02*
X13021992Y-12207793D01*
X13021992Y-12207793D02*
X13069611Y-12207793D01*
X13069611Y-12207793D02*
X13088658Y-12198269D01*
X13155325Y-12150650D02*
X13231515Y-12150650D01*
X13183896Y-12083984D02*
X13183896Y-12255412D01*
X13183896Y-12255412D02*
X13193420Y-12274460D01*
X13193420Y-12274460D02*
X13212468Y-12283984D01*
X13212468Y-12283984D02*
X13231515Y-12283984D01*
X13374373Y-12274460D02*
X13355325Y-12283984D01*
X13355325Y-12283984D02*
X13317230Y-12283984D01*
X13317230Y-12283984D02*
X13298182Y-12274460D01*
X13298182Y-12274460D02*
X13288658Y-12255412D01*
X13288658Y-12255412D02*
X13288658Y-12179222D01*
X13288658Y-12179222D02*
X13298182Y-12160174D01*
X13298182Y-12160174D02*
X13317230Y-12150650D01*
X13317230Y-12150650D02*
X13355325Y-12150650D01*
X13355325Y-12150650D02*
X13374373Y-12160174D01*
X13374373Y-12160174D02*
X13383896Y-12179222D01*
X13383896Y-12179222D02*
X13383896Y-12198269D01*
X13383896Y-12198269D02*
X13288658Y-12217317D01*
X13555325Y-12283984D02*
X13555325Y-12083984D01*
X13555325Y-12274460D02*
X13536277Y-12283984D01*
X13536277Y-12283984D02*
X13498182Y-12283984D01*
X13498182Y-12283984D02*
X13479134Y-12274460D01*
X13479134Y-12274460D02*
X13469611Y-12264936D01*
X13469611Y-12264936D02*
X13460087Y-12245888D01*
X13460087Y-12245888D02*
X13460087Y-12188746D01*
X13460087Y-12188746D02*
X13469611Y-12169698D01*
X13469611Y-12169698D02*
X13479134Y-12160174D01*
X13479134Y-12160174D02*
X13498182Y-12150650D01*
X13498182Y-12150650D02*
X13536277Y-12150650D01*
X13536277Y-12150650D02*
X13555325Y-12160174D01*
X13631515Y-12360174D02*
X13641039Y-12350650D01*
X13641039Y-12350650D02*
X13660087Y-12322079D01*
X13660087Y-12322079D02*
X13669611Y-12303031D01*
X13669611Y-12303031D02*
X13679134Y-12274460D01*
X13679134Y-12274460D02*
X13688658Y-12226841D01*
X13688658Y-12226841D02*
X13688658Y-12188746D01*
X13688658Y-12188746D02*
X13679134Y-12141127D01*
X13679134Y-12141127D02*
X13669611Y-12112555D01*
X13669611Y-12112555D02*
X13660087Y-12093508D01*
X13660087Y-12093508D02*
X13641039Y-12064936D01*
X13641039Y-12064936D02*
X13631515Y-12055412D01*
D12*
X6875500Y-12456500D02*
G75*
G02*
X6776440Y-12456500I-49530J0D01*
G01*
X6776440Y-12456500D02*
G75*
G02*
X6875500Y-12456500I49530J0D01*
G01*
D11*
X7174372Y-12347984D02*
X7193420Y-12347984D01*
X7193420Y-12347984D02*
X7212467Y-12357508D01*
X7212467Y-12357508D02*
X7221991Y-12367031D01*
X7221991Y-12367031D02*
X7231515Y-12386079D01*
X7231515Y-12386079D02*
X7241039Y-12424174D01*
X7241039Y-12424174D02*
X7241039Y-12471793D01*
X7241039Y-12471793D02*
X7231515Y-12509888D01*
X7231515Y-12509888D02*
X7221991Y-12528936D01*
X7221991Y-12528936D02*
X7212467Y-12538460D01*
X7212467Y-12538460D02*
X7193420Y-12547984D01*
X7193420Y-12547984D02*
X7174372Y-12547984D01*
X7174372Y-12547984D02*
X7155324Y-12538460D01*
X7155324Y-12538460D02*
X7145801Y-12528936D01*
X7145801Y-12528936D02*
X7136277Y-12509888D01*
X7136277Y-12509888D02*
X7126753Y-12471793D01*
X7126753Y-12471793D02*
X7126753Y-12424174D01*
X7126753Y-12424174D02*
X7136277Y-12386079D01*
X7136277Y-12386079D02*
X7145801Y-12367031D01*
X7145801Y-12367031D02*
X7155324Y-12357508D01*
X7155324Y-12357508D02*
X7174372Y-12347984D01*
X7326753Y-12528936D02*
X7336277Y-12538460D01*
X7336277Y-12538460D02*
X7326753Y-12547984D01*
X7326753Y-12547984D02*
X7317229Y-12538460D01*
X7317229Y-12538460D02*
X7326753Y-12528936D01*
X7326753Y-12528936D02*
X7326753Y-12547984D01*
X7431515Y-12547984D02*
X7469610Y-12547984D01*
X7469610Y-12547984D02*
X7488658Y-12538460D01*
X7488658Y-12538460D02*
X7498182Y-12528936D01*
X7498182Y-12528936D02*
X7517229Y-12500365D01*
X7517229Y-12500365D02*
X7526753Y-12462269D01*
X7526753Y-12462269D02*
X7526753Y-12386079D01*
X7526753Y-12386079D02*
X7517229Y-12367031D01*
X7517229Y-12367031D02*
X7507705Y-12357508D01*
X7507705Y-12357508D02*
X7488658Y-12347984D01*
X7488658Y-12347984D02*
X7450562Y-12347984D01*
X7450562Y-12347984D02*
X7431515Y-12357508D01*
X7431515Y-12357508D02*
X7421991Y-12367031D01*
X7421991Y-12367031D02*
X7412467Y-12386079D01*
X7412467Y-12386079D02*
X7412467Y-12433698D01*
X7412467Y-12433698D02*
X7421991Y-12452746D01*
X7421991Y-12452746D02*
X7431515Y-12462269D01*
X7431515Y-12462269D02*
X7450562Y-12471793D01*
X7450562Y-12471793D02*
X7488658Y-12471793D01*
X7488658Y-12471793D02*
X7507705Y-12462269D01*
X7507705Y-12462269D02*
X7517229Y-12452746D01*
X7517229Y-12452746D02*
X7526753Y-12433698D01*
X7621991Y-12547984D02*
X7660086Y-12547984D01*
X7660086Y-12547984D02*
X7679134Y-12538460D01*
X7679134Y-12538460D02*
X7688658Y-12528936D01*
X7688658Y-12528936D02*
X7707705Y-12500365D01*
X7707705Y-12500365D02*
X7717229Y-12462269D01*
X7717229Y-12462269D02*
X7717229Y-12386079D01*
X7717229Y-12386079D02*
X7707705Y-12367031D01*
X7707705Y-12367031D02*
X7698182Y-12357508D01*
X7698182Y-12357508D02*
X7679134Y-12347984D01*
X7679134Y-12347984D02*
X7641039Y-12347984D01*
X7641039Y-12347984D02*
X7621991Y-12357508D01*
X7621991Y-12357508D02*
X7612467Y-12367031D01*
X7612467Y-12367031D02*
X7602943Y-12386079D01*
X7602943Y-12386079D02*
X7602943Y-12433698D01*
X7602943Y-12433698D02*
X7612467Y-12452746D01*
X7612467Y-12452746D02*
X7621991Y-12462269D01*
X7621991Y-12462269D02*
X7641039Y-12471793D01*
X7641039Y-12471793D02*
X7679134Y-12471793D01*
X7679134Y-12471793D02*
X7698182Y-12462269D01*
X7698182Y-12462269D02*
X7707705Y-12452746D01*
X7707705Y-12452746D02*
X7717229Y-12433698D01*
X7907705Y-12547984D02*
X7793420Y-12547984D01*
X7850562Y-12547984D02*
X7850562Y-12347984D01*
X7850562Y-12347984D02*
X7831515Y-12376555D01*
X7831515Y-12376555D02*
X7812467Y-12395603D01*
X7812467Y-12395603D02*
X7793420Y-12405127D01*
X7993420Y-12547984D02*
X7993420Y-12414650D01*
X7993420Y-12433698D02*
X8002943Y-12424174D01*
X8002943Y-12424174D02*
X8021991Y-12414650D01*
X8021991Y-12414650D02*
X8050563Y-12414650D01*
X8050563Y-12414650D02*
X8069610Y-12424174D01*
X8069610Y-12424174D02*
X8079134Y-12443222D01*
X8079134Y-12443222D02*
X8079134Y-12547984D01*
X8079134Y-12443222D02*
X8088658Y-12424174D01*
X8088658Y-12424174D02*
X8107705Y-12414650D01*
X8107705Y-12414650D02*
X8136277Y-12414650D01*
X8136277Y-12414650D02*
X8155324Y-12424174D01*
X8155324Y-12424174D02*
X8164848Y-12443222D01*
X8164848Y-12443222D02*
X8164848Y-12547984D01*
X8260086Y-12547984D02*
X8260086Y-12414650D01*
X8260086Y-12433698D02*
X8269610Y-12424174D01*
X8269610Y-12424174D02*
X8288658Y-12414650D01*
X8288658Y-12414650D02*
X8317229Y-12414650D01*
X8317229Y-12414650D02*
X8336277Y-12424174D01*
X8336277Y-12424174D02*
X8345801Y-12443222D01*
X8345801Y-12443222D02*
X8345801Y-12547984D01*
X8345801Y-12443222D02*
X8355324Y-12424174D01*
X8355324Y-12424174D02*
X8374372Y-12414650D01*
X8374372Y-12414650D02*
X8402944Y-12414650D01*
X8402944Y-12414650D02*
X8421991Y-12424174D01*
X8421991Y-12424174D02*
X8431515Y-12443222D01*
X8431515Y-12443222D02*
X8431515Y-12547984D01*
X8821991Y-12338460D02*
X8650563Y-12595603D01*
X9079134Y-12347984D02*
X9098182Y-12347984D01*
X9098182Y-12347984D02*
X9117229Y-12357508D01*
X9117229Y-12357508D02*
X9126753Y-12367031D01*
X9126753Y-12367031D02*
X9136277Y-12386079D01*
X9136277Y-12386079D02*
X9145801Y-12424174D01*
X9145801Y-12424174D02*
X9145801Y-12471793D01*
X9145801Y-12471793D02*
X9136277Y-12509888D01*
X9136277Y-12509888D02*
X9126753Y-12528936D01*
X9126753Y-12528936D02*
X9117229Y-12538460D01*
X9117229Y-12538460D02*
X9098182Y-12547984D01*
X9098182Y-12547984D02*
X9079134Y-12547984D01*
X9079134Y-12547984D02*
X9060087Y-12538460D01*
X9060087Y-12538460D02*
X9050563Y-12528936D01*
X9050563Y-12528936D02*
X9041039Y-12509888D01*
X9041039Y-12509888D02*
X9031515Y-12471793D01*
X9031515Y-12471793D02*
X9031515Y-12424174D01*
X9031515Y-12424174D02*
X9041039Y-12386079D01*
X9041039Y-12386079D02*
X9050563Y-12367031D01*
X9050563Y-12367031D02*
X9060087Y-12357508D01*
X9060087Y-12357508D02*
X9079134Y-12347984D01*
X9231515Y-12528936D02*
X9241039Y-12538460D01*
X9241039Y-12538460D02*
X9231515Y-12547984D01*
X9231515Y-12547984D02*
X9221991Y-12538460D01*
X9221991Y-12538460D02*
X9231515Y-12528936D01*
X9231515Y-12528936D02*
X9231515Y-12547984D01*
X9364848Y-12347984D02*
X9383896Y-12347984D01*
X9383896Y-12347984D02*
X9402944Y-12357508D01*
X9402944Y-12357508D02*
X9412468Y-12367031D01*
X9412468Y-12367031D02*
X9421991Y-12386079D01*
X9421991Y-12386079D02*
X9431515Y-12424174D01*
X9431515Y-12424174D02*
X9431515Y-12471793D01*
X9431515Y-12471793D02*
X9421991Y-12509888D01*
X9421991Y-12509888D02*
X9412468Y-12528936D01*
X9412468Y-12528936D02*
X9402944Y-12538460D01*
X9402944Y-12538460D02*
X9383896Y-12547984D01*
X9383896Y-12547984D02*
X9364848Y-12547984D01*
X9364848Y-12547984D02*
X9345801Y-12538460D01*
X9345801Y-12538460D02*
X9336277Y-12528936D01*
X9336277Y-12528936D02*
X9326753Y-12509888D01*
X9326753Y-12509888D02*
X9317229Y-12471793D01*
X9317229Y-12471793D02*
X9317229Y-12424174D01*
X9317229Y-12424174D02*
X9326753Y-12386079D01*
X9326753Y-12386079D02*
X9336277Y-12367031D01*
X9336277Y-12367031D02*
X9345801Y-12357508D01*
X9345801Y-12357508D02*
X9364848Y-12347984D01*
X9498182Y-12347984D02*
X9621991Y-12347984D01*
X9621991Y-12347984D02*
X9555325Y-12424174D01*
X9555325Y-12424174D02*
X9583896Y-12424174D01*
X9583896Y-12424174D02*
X9602944Y-12433698D01*
X9602944Y-12433698D02*
X9612468Y-12443222D01*
X9612468Y-12443222D02*
X9621991Y-12462269D01*
X9621991Y-12462269D02*
X9621991Y-12509888D01*
X9621991Y-12509888D02*
X9612468Y-12528936D01*
X9612468Y-12528936D02*
X9602944Y-12538460D01*
X9602944Y-12538460D02*
X9583896Y-12547984D01*
X9583896Y-12547984D02*
X9526753Y-12547984D01*
X9526753Y-12547984D02*
X9507706Y-12538460D01*
X9507706Y-12538460D02*
X9498182Y-12528936D01*
X9717229Y-12547984D02*
X9755325Y-12547984D01*
X9755325Y-12547984D02*
X9774372Y-12538460D01*
X9774372Y-12538460D02*
X9783896Y-12528936D01*
X9783896Y-12528936D02*
X9802944Y-12500365D01*
X9802944Y-12500365D02*
X9812468Y-12462269D01*
X9812468Y-12462269D02*
X9812468Y-12386079D01*
X9812468Y-12386079D02*
X9802944Y-12367031D01*
X9802944Y-12367031D02*
X9793420Y-12357508D01*
X9793420Y-12357508D02*
X9774372Y-12347984D01*
X9774372Y-12347984D02*
X9736277Y-12347984D01*
X9736277Y-12347984D02*
X9717229Y-12357508D01*
X9717229Y-12357508D02*
X9707706Y-12367031D01*
X9707706Y-12367031D02*
X9698182Y-12386079D01*
X9698182Y-12386079D02*
X9698182Y-12433698D01*
X9698182Y-12433698D02*
X9707706Y-12452746D01*
X9707706Y-12452746D02*
X9717229Y-12462269D01*
X9717229Y-12462269D02*
X9736277Y-12471793D01*
X9736277Y-12471793D02*
X9774372Y-12471793D01*
X9774372Y-12471793D02*
X9793420Y-12462269D01*
X9793420Y-12462269D02*
X9802944Y-12452746D01*
X9802944Y-12452746D02*
X9812468Y-12433698D01*
X9936277Y-12347984D02*
X9955325Y-12347984D01*
X9955325Y-12347984D02*
X9974372Y-12357508D01*
X9974372Y-12357508D02*
X9983896Y-12367031D01*
X9983896Y-12367031D02*
X9993420Y-12386079D01*
X9993420Y-12386079D02*
X10002944Y-12424174D01*
X10002944Y-12424174D02*
X10002944Y-12471793D01*
X10002944Y-12471793D02*
X9993420Y-12509888D01*
X9993420Y-12509888D02*
X9983896Y-12528936D01*
X9983896Y-12528936D02*
X9974372Y-12538460D01*
X9974372Y-12538460D02*
X9955325Y-12547984D01*
X9955325Y-12547984D02*
X9936277Y-12547984D01*
X9936277Y-12547984D02*
X9917229Y-12538460D01*
X9917229Y-12538460D02*
X9907706Y-12528936D01*
X9907706Y-12528936D02*
X9898182Y-12509888D01*
X9898182Y-12509888D02*
X9888658Y-12471793D01*
X9888658Y-12471793D02*
X9888658Y-12424174D01*
X9888658Y-12424174D02*
X9898182Y-12386079D01*
X9898182Y-12386079D02*
X9907706Y-12367031D01*
X9907706Y-12367031D02*
X9917229Y-12357508D01*
X9917229Y-12357508D02*
X9936277Y-12347984D01*
X10079134Y-12347984D02*
X10079134Y-12386079D01*
X10155325Y-12347984D02*
X10155325Y-12386079D01*
X10450563Y-12624174D02*
X10441039Y-12614650D01*
X10441039Y-12614650D02*
X10421991Y-12586079D01*
X10421991Y-12586079D02*
X10412468Y-12567031D01*
X10412468Y-12567031D02*
X10402944Y-12538460D01*
X10402944Y-12538460D02*
X10393420Y-12490841D01*
X10393420Y-12490841D02*
X10393420Y-12452746D01*
X10393420Y-12452746D02*
X10402944Y-12405127D01*
X10402944Y-12405127D02*
X10412468Y-12376555D01*
X10412468Y-12376555D02*
X10421991Y-12357508D01*
X10421991Y-12357508D02*
X10441039Y-12328936D01*
X10441039Y-12328936D02*
X10450563Y-12319412D01*
X10507706Y-12347984D02*
X10631515Y-12347984D01*
X10631515Y-12347984D02*
X10564849Y-12424174D01*
X10564849Y-12424174D02*
X10593420Y-12424174D01*
X10593420Y-12424174D02*
X10612468Y-12433698D01*
X10612468Y-12433698D02*
X10621991Y-12443222D01*
X10621991Y-12443222D02*
X10631515Y-12462269D01*
X10631515Y-12462269D02*
X10631515Y-12509888D01*
X10631515Y-12509888D02*
X10621991Y-12528936D01*
X10621991Y-12528936D02*
X10612468Y-12538460D01*
X10612468Y-12538460D02*
X10593420Y-12547984D01*
X10593420Y-12547984D02*
X10536277Y-12547984D01*
X10536277Y-12547984D02*
X10517230Y-12538460D01*
X10517230Y-12538460D02*
X10507706Y-12528936D01*
X10869611Y-12547984D02*
X10869611Y-12347984D01*
X10955325Y-12547984D02*
X10955325Y-12443222D01*
X10955325Y-12443222D02*
X10945801Y-12424174D01*
X10945801Y-12424174D02*
X10926753Y-12414650D01*
X10926753Y-12414650D02*
X10898182Y-12414650D01*
X10898182Y-12414650D02*
X10879134Y-12424174D01*
X10879134Y-12424174D02*
X10869611Y-12433698D01*
X11079134Y-12547984D02*
X11060087Y-12538460D01*
X11060087Y-12538460D02*
X11050563Y-12528936D01*
X11050563Y-12528936D02*
X11041039Y-12509888D01*
X11041039Y-12509888D02*
X11041039Y-12452746D01*
X11041039Y-12452746D02*
X11050563Y-12433698D01*
X11050563Y-12433698D02*
X11060087Y-12424174D01*
X11060087Y-12424174D02*
X11079134Y-12414650D01*
X11079134Y-12414650D02*
X11107706Y-12414650D01*
X11107706Y-12414650D02*
X11126753Y-12424174D01*
X11126753Y-12424174D02*
X11136277Y-12433698D01*
X11136277Y-12433698D02*
X11145801Y-12452746D01*
X11145801Y-12452746D02*
X11145801Y-12509888D01*
X11145801Y-12509888D02*
X11136277Y-12528936D01*
X11136277Y-12528936D02*
X11126753Y-12538460D01*
X11126753Y-12538460D02*
X11107706Y-12547984D01*
X11107706Y-12547984D02*
X11079134Y-12547984D01*
X11260087Y-12547984D02*
X11241039Y-12538460D01*
X11241039Y-12538460D02*
X11231515Y-12519412D01*
X11231515Y-12519412D02*
X11231515Y-12347984D01*
X11412468Y-12538460D02*
X11393420Y-12547984D01*
X11393420Y-12547984D02*
X11355325Y-12547984D01*
X11355325Y-12547984D02*
X11336277Y-12538460D01*
X11336277Y-12538460D02*
X11326753Y-12519412D01*
X11326753Y-12519412D02*
X11326753Y-12443222D01*
X11326753Y-12443222D02*
X11336277Y-12424174D01*
X11336277Y-12424174D02*
X11355325Y-12414650D01*
X11355325Y-12414650D02*
X11393420Y-12414650D01*
X11393420Y-12414650D02*
X11412468Y-12424174D01*
X11412468Y-12424174D02*
X11421991Y-12443222D01*
X11421991Y-12443222D02*
X11421991Y-12462269D01*
X11421991Y-12462269D02*
X11326753Y-12481317D01*
X11498182Y-12538460D02*
X11517230Y-12547984D01*
X11517230Y-12547984D02*
X11555325Y-12547984D01*
X11555325Y-12547984D02*
X11574372Y-12538460D01*
X11574372Y-12538460D02*
X11583896Y-12519412D01*
X11583896Y-12519412D02*
X11583896Y-12509888D01*
X11583896Y-12509888D02*
X11574372Y-12490841D01*
X11574372Y-12490841D02*
X11555325Y-12481317D01*
X11555325Y-12481317D02*
X11526753Y-12481317D01*
X11526753Y-12481317D02*
X11507706Y-12471793D01*
X11507706Y-12471793D02*
X11498182Y-12452746D01*
X11498182Y-12452746D02*
X11498182Y-12443222D01*
X11498182Y-12443222D02*
X11507706Y-12424174D01*
X11507706Y-12424174D02*
X11526753Y-12414650D01*
X11526753Y-12414650D02*
X11555325Y-12414650D01*
X11555325Y-12414650D02*
X11574372Y-12424174D01*
X11650563Y-12624174D02*
X11660087Y-12614650D01*
X11660087Y-12614650D02*
X11679134Y-12586079D01*
X11679134Y-12586079D02*
X11688658Y-12567031D01*
X11688658Y-12567031D02*
X11698182Y-12538460D01*
X11698182Y-12538460D02*
X11707706Y-12490841D01*
X11707706Y-12490841D02*
X11707706Y-12452746D01*
X11707706Y-12452746D02*
X11698182Y-12405127D01*
X11698182Y-12405127D02*
X11688658Y-12376555D01*
X11688658Y-12376555D02*
X11679134Y-12357508D01*
X11679134Y-12357508D02*
X11660087Y-12328936D01*
X11660087Y-12328936D02*
X11650563Y-12319412D01*
X12012468Y-12624174D02*
X12002944Y-12614650D01*
X12002944Y-12614650D02*
X11983896Y-12586079D01*
X11983896Y-12586079D02*
X11974372Y-12567031D01*
X11974372Y-12567031D02*
X11964849Y-12538460D01*
X11964849Y-12538460D02*
X11955325Y-12490841D01*
X11955325Y-12490841D02*
X11955325Y-12452746D01*
X11955325Y-12452746D02*
X11964849Y-12405127D01*
X11964849Y-12405127D02*
X11974372Y-12376555D01*
X11974372Y-12376555D02*
X11983896Y-12357508D01*
X11983896Y-12357508D02*
X12002944Y-12328936D01*
X12002944Y-12328936D02*
X12012468Y-12319412D01*
X12088658Y-12414650D02*
X12088658Y-12547984D01*
X12088658Y-12433698D02*
X12098182Y-12424174D01*
X12098182Y-12424174D02*
X12117230Y-12414650D01*
X12117230Y-12414650D02*
X12145801Y-12414650D01*
X12145801Y-12414650D02*
X12164849Y-12424174D01*
X12164849Y-12424174D02*
X12174372Y-12443222D01*
X12174372Y-12443222D02*
X12174372Y-12547984D01*
X12298182Y-12547984D02*
X12279134Y-12538460D01*
X12279134Y-12538460D02*
X12269611Y-12528936D01*
X12269611Y-12528936D02*
X12260087Y-12509888D01*
X12260087Y-12509888D02*
X12260087Y-12452746D01*
X12260087Y-12452746D02*
X12269611Y-12433698D01*
X12269611Y-12433698D02*
X12279134Y-12424174D01*
X12279134Y-12424174D02*
X12298182Y-12414650D01*
X12298182Y-12414650D02*
X12326753Y-12414650D01*
X12326753Y-12414650D02*
X12345801Y-12424174D01*
X12345801Y-12424174D02*
X12355325Y-12433698D01*
X12355325Y-12433698D02*
X12364849Y-12452746D01*
X12364849Y-12452746D02*
X12364849Y-12509888D01*
X12364849Y-12509888D02*
X12355325Y-12528936D01*
X12355325Y-12528936D02*
X12345801Y-12538460D01*
X12345801Y-12538460D02*
X12326753Y-12547984D01*
X12326753Y-12547984D02*
X12298182Y-12547984D01*
X12421992Y-12414650D02*
X12498182Y-12414650D01*
X12450563Y-12347984D02*
X12450563Y-12519412D01*
X12450563Y-12519412D02*
X12460087Y-12538460D01*
X12460087Y-12538460D02*
X12479134Y-12547984D01*
X12479134Y-12547984D02*
X12498182Y-12547984D01*
X12717230Y-12414650D02*
X12717230Y-12614650D01*
X12717230Y-12424174D02*
X12736277Y-12414650D01*
X12736277Y-12414650D02*
X12774373Y-12414650D01*
X12774373Y-12414650D02*
X12793420Y-12424174D01*
X12793420Y-12424174D02*
X12802944Y-12433698D01*
X12802944Y-12433698D02*
X12812468Y-12452746D01*
X12812468Y-12452746D02*
X12812468Y-12509888D01*
X12812468Y-12509888D02*
X12802944Y-12528936D01*
X12802944Y-12528936D02*
X12793420Y-12538460D01*
X12793420Y-12538460D02*
X12774373Y-12547984D01*
X12774373Y-12547984D02*
X12736277Y-12547984D01*
X12736277Y-12547984D02*
X12717230Y-12538460D01*
X12926753Y-12547984D02*
X12907706Y-12538460D01*
X12907706Y-12538460D02*
X12898182Y-12519412D01*
X12898182Y-12519412D02*
X12898182Y-12347984D01*
X13088658Y-12547984D02*
X13088658Y-12443222D01*
X13088658Y-12443222D02*
X13079134Y-12424174D01*
X13079134Y-12424174D02*
X13060087Y-12414650D01*
X13060087Y-12414650D02*
X13021992Y-12414650D01*
X13021992Y-12414650D02*
X13002944Y-12424174D01*
X13088658Y-12538460D02*
X13069611Y-12547984D01*
X13069611Y-12547984D02*
X13021992Y-12547984D01*
X13021992Y-12547984D02*
X13002944Y-12538460D01*
X13002944Y-12538460D02*
X12993420Y-12519412D01*
X12993420Y-12519412D02*
X12993420Y-12500365D01*
X12993420Y-12500365D02*
X13002944Y-12481317D01*
X13002944Y-12481317D02*
X13021992Y-12471793D01*
X13021992Y-12471793D02*
X13069611Y-12471793D01*
X13069611Y-12471793D02*
X13088658Y-12462269D01*
X13155325Y-12414650D02*
X13231515Y-12414650D01*
X13183896Y-12347984D02*
X13183896Y-12519412D01*
X13183896Y-12519412D02*
X13193420Y-12538460D01*
X13193420Y-12538460D02*
X13212468Y-12547984D01*
X13212468Y-12547984D02*
X13231515Y-12547984D01*
X13374373Y-12538460D02*
X13355325Y-12547984D01*
X13355325Y-12547984D02*
X13317230Y-12547984D01*
X13317230Y-12547984D02*
X13298182Y-12538460D01*
X13298182Y-12538460D02*
X13288658Y-12519412D01*
X13288658Y-12519412D02*
X13288658Y-12443222D01*
X13288658Y-12443222D02*
X13298182Y-12424174D01*
X13298182Y-12424174D02*
X13317230Y-12414650D01*
X13317230Y-12414650D02*
X13355325Y-12414650D01*
X13355325Y-12414650D02*
X13374373Y-12424174D01*
X13374373Y-12424174D02*
X13383896Y-12443222D01*
X13383896Y-12443222D02*
X13383896Y-12462269D01*
X13383896Y-12462269D02*
X13288658Y-12481317D01*
X13555325Y-12547984D02*
X13555325Y-12347984D01*
X13555325Y-12538460D02*
X13536277Y-12547984D01*
X13536277Y-12547984D02*
X13498182Y-12547984D01*
X13498182Y-12547984D02*
X13479134Y-12538460D01*
X13479134Y-12538460D02*
X13469611Y-12528936D01*
X13469611Y-12528936D02*
X13460087Y-12509888D01*
X13460087Y-12509888D02*
X13460087Y-12452746D01*
X13460087Y-12452746D02*
X13469611Y-12433698D01*
X13469611Y-12433698D02*
X13479134Y-12424174D01*
X13479134Y-12424174D02*
X13498182Y-12414650D01*
X13498182Y-12414650D02*
X13536277Y-12414650D01*
X13536277Y-12414650D02*
X13555325Y-12424174D01*
X13631515Y-12624174D02*
X13641039Y-12614650D01*
X13641039Y-12614650D02*
X13660087Y-12586079D01*
X13660087Y-12586079D02*
X13669611Y-12567031D01*
X13669611Y-12567031D02*
X13679134Y-12538460D01*
X13679134Y-12538460D02*
X13688658Y-12490841D01*
X13688658Y-12490841D02*
X13688658Y-12452746D01*
X13688658Y-12452746D02*
X13679134Y-12405127D01*
X13679134Y-12405127D02*
X13669611Y-12376555D01*
X13669611Y-12376555D02*
X13660087Y-12357508D01*
X13660087Y-12357508D02*
X13641039Y-12328936D01*
X13641039Y-12328936D02*
X13631515Y-12319412D01*
M02*
